<?xml version="1.0" standalone="no"?>
<!DOCTYPE svg PUBLIC "-//W3C//DTD SVG 20010904//EN"
 "http://www.w3.org/TR/2001/REC-SVG-20010904/DTD/svg10.dtd">
<svg version="1.0" xmlns="http://www.w3.org/2000/svg"
 width="1211.000000pt" height="282.000000pt" viewBox="0 0 1211.000000 282.000000"
 preserveAspectRatio="xMidYMid meet">

<g transform="translate(0.000000,282.000000) scale(0.100000,-0.100000)"
fill="#000000" stroke="none">
<path d="M905 2810 c-160 -9 -259 -25 -348 -57 -214 -77 -407 -267 -486 -478
-53 -141 -71 -356 -71 -865 0 -490 20 -730 70 -863 49 -128 174 -287 294 -371
214 -152 338 -170 1132 -163 545 5 605 9 744 53 226 71 443 288 514 514 44
139 48 199 53 744 6 684 -6 835 -82 995 -91 191 -270 362 -452 431 -79 30
-206 50 -383 60 -184 11 -785 11 -985 0z m618 -597 c138 -92 291 -137 505
-149 114 -7 124 -9 149 -33 l26 -26 -7 -235 c-11 -435 -51 -677 -139 -845 -49
-92 -152 -188 -284 -265 -62 -36 -159 -93 -215 -128 -57 -35 -115 -66 -130
-69 -21 -4 -49 8 -125 54 -54 33 -153 93 -221 132 -159 93 -246 174 -300 279
-90 174 -125 376 -141 822 -9 238 -4 277 36 298 10 5 68 12 129 16 230 13 362
54 536 166 74 49 84 48 181 -17z"/>
<path d="M1350 2018 c-123 -72 -354 -138 -480 -138 l-50 0 5 -52 c2 -29 7
-120 10 -201 15 -395 72 -609 190 -714 40 -36 332 -218 387 -241 10 -5 275
148 354 204 67 47 98 84 138 162 55 108 91 342 103 658 l6 181 -85 6 c-132 10
-268 50 -398 115 l-115 57 -65 -37z"/>
<path d="M10010 1420 l0 -520 105 0 105 0 0 520 0 520 -105 0 -105 0 0 -520z"/>
<path d="M10390 1420 l0 -520 105 0 105 0 0 520 0 520 -105 0 -105 0 0 -520z"/>
<path d="M3640 1790 l0 -90 155 0 155 0 0 -400 0 -400 115 0 115 0 0 400 0
400 155 0 155 0 0 90 0 90 -425 0 -425 0 0 -90z"/>
<path d="M7746 1413 c85 -258 157 -478 160 -490 6 -22 10 -23 129 -23 l123 0
108 323 c58 177 109 324 112 327 6 7 0 23 117 -335 l101 -310 125 -3 124 -2
155 476 c85 261 156 482 158 490 3 12 -13 14 -103 12 l-107 -3 -110 -335 c-60
-184 -113 -338 -117 -343 -4 -4 -57 147 -118 335 l-110 343 -105 3 -104 3
-114 -341 c-63 -187 -118 -340 -121 -340 -3 0 -54 153 -114 340 l-109 340
-117 0 -117 0 154 -467z"/>
<path d="M6760 1725 l0 -95 -55 0 -55 0 0 -80 0 -80 54 0 54 0 4 -198 c3 -190
4 -199 30 -253 46 -93 117 -129 253 -129 82 0 139 12 163 35 19 17 -36 158
-58 149 -37 -15 -77 -20 -107 -12 -55 14 -63 43 -63 238 l0 170 95 0 95 0 0
80 0 80 -95 0 -95 0 0 95 0 95 -110 0 -110 0 0 -95z"/>
<path d="M11640 1725 l0 -95 -55 0 -55 0 0 -80 0 -80 55 0 55 0 0 -177 c0 -98
5 -198 11 -223 14 -64 51 -114 106 -147 42 -24 60 -28 149 -31 86 -4 108 -1
148 16 l46 21 -25 66 c-32 85 -33 87 -53 76 -18 -9 -51 -14 -90 -12 -13 1 -34
12 -47 26 -25 24 -25 26 -25 205 l0 180 95 0 95 0 0 80 0 80 -95 0 -95 0 0 95
0 95 -110 0 -110 0 0 -95z"/>
<path d="M4925 1653 c-55 -12 -90 -28 -130 -59 l-45 -34 0 45 0 45 -105 0
-105 0 0 -375 0 -375 110 0 110 0 0 198 c0 108 5 214 10 234 23 80 93 129 186
130 l54 1 0 98 0 99 -32 -1 c-18 -1 -42 -3 -53 -6z"/>
<path d="M6186 1644 c-68 -16 -108 -39 -153 -86 -41 -42 -53 -76 -53 -145 0
-132 70 -186 285 -220 135 -21 165 -34 165 -71 0 -49 -30 -67 -125 -70 -88 -4
-164 12 -237 49 l-38 20 -36 -78 c-41 -91 -43 -88 69 -124 63 -21 91 -24 223
-24 l151 0 69 35 c80 41 121 91 130 162 9 67 -2 113 -39 155 -43 49 -92 69
-243 99 -142 28 -160 35 -169 64 -26 82 146 117 298 60 32 -12 60 -20 62 -18
9 10 65 129 65 138 0 29 -177 71 -293 69 -40 0 -99 -7 -131 -15z"/>
<path d="M9345 1646 c-65 -15 -127 -38 -162 -62 l-23 -14 37 -74 36 -73 66 31
c57 27 77 31 146 31 51 0 91 -5 110 -15 35 -18 75 -74 75 -105 0 -22 -4 -22
-147 -28 -171 -6 -237 -24 -295 -83 -73 -73 -76 -200 -6 -280 52 -59 99 -77
211 -82 112 -5 165 9 218 59 17 16 33 29 35 29 2 0 4 -18 4 -40 l0 -40 100 0
100 0 0 223 c0 235 -8 313 -37 374 -26 55 -87 109 -151 134 -72 27 -229 35
-317 15z m285 -480 c0 -79 -69 -136 -165 -136 -59 0 -99 21 -115 59 -17 42 -5
78 33 101 27 17 50 20 140 20 l107 0 0 -44z"/>
<path d="M11006 1650 c-21 -6 -65 -24 -98 -42 -250 -133 -262 -502 -21 -656
79 -50 149 -65 282 -60 99 4 124 8 171 31 31 14 68 40 84 56 l29 30 -58 60
-57 60 -32 -23 c-107 -80 -291 -55 -351 48 -14 24 -25 46 -25 49 0 4 128 7
285 7 l284 0 6 33 c9 47 -11 153 -40 213 -35 71 -97 131 -174 167 -53 25 -78
30 -155 33 -50 2 -108 -1 -130 -6z m182 -165 c43 -19 79 -50 98 -87 30 -58 31
-58 -171 -58 -121 0 -185 4 -185 10 0 6 6 25 14 43 37 86 152 130 244 92z"/>
<path d="M5102 1388 c5 -304 13 -340 90 -415 64 -61 100 -76 201 -81 106 -5
163 9 223 55 l44 33 0 -40 0 -40 105 0 105 0 0 375 0 375 -110 0 -110 0 0
-218 c0 -214 0 -219 -26 -269 -19 -40 -35 -57 -68 -72 -87 -42 -175 -18 -213
59 -22 42 -23 56 -23 272 l0 228 -111 0 -111 0 4 -262z"/>
</g>
</svg>
