<?xml version="1.0" standalone="no"?>
<!DOCTYPE svg PUBLIC "-//W3C//DTD SVG 20010904//EN"
 "http://www.w3.org/TR/2001/REC-SVG-20010904/DTD/svg10.dtd">
<svg version="1.0" xmlns="http://www.w3.org/2000/svg"
 width="997.000000pt" height="296.000000pt" viewBox="0 0 997.000000 296.000000"
 preserveAspectRatio="xMidYMid meet">

<g transform="translate(0.000000,296.000000) scale(0.100000,-0.100000)"
fill="#000000" stroke="none">
<path d="M8343 1952 c-71 -25 -117 -63 -143 -117 -18 -38 -21 -59 -19 -124 4
-71 7 -83 35 -118 40 -49 89 -77 194 -109 146 -45 170 -63 170 -123 0 -38 -30
-62 -83 -68 -59 -7 -104 16 -115 60 l-8 32 -100 0 -99 0 2 -37 c5 -75 58 -145
143 -189 53 -27 199 -38 265 -20 114 30 185 115 192 229 9 130 -53 197 -239
257 -133 43 -173 73 -163 120 8 41 25 56 72 62 55 7 98 -17 113 -62 l12 -35
94 0 c105 0 111 4 100 64 -11 57 -65 126 -126 160 -48 27 -65 31 -150 33 -73
3 -107 -1 -147 -15z"/>
<path d="M3027 1954 c-4 -4 -7 -186 -7 -404 0 -329 2 -400 14 -409 9 -8 43
-11 93 -9 l78 3 5 220 5 220 21 -45 c11 -25 54 -125 94 -223 l73 -178 71 3 71
3 90 219 90 219 3 -216 c3 -250 -8 -230 117 -225 l70 3 0 410 0 410 -100 3
-100 3 -120 -280 c-65 -154 -121 -278 -124 -275 -3 3 -57 127 -121 277 l-116
272 -100 3 c-55 1 -103 0 -107 -4z"/>
<path d="M4087 1954 c-4 -4 -7 -186 -7 -404 0 -295 3 -399 12 -408 17 -17 459
-17 476 0 16 16 16 130 0 146 -8 8 -57 12 -155 12 l-144 0 3 88 3 87 133 3
132 3 0 74 0 74 -132 3 -133 3 -3 83 -3 82 150 0 c173 0 165 -5 159 101 l-3
54 -241 3 c-132 1 -243 -1 -247 -4z"/>
<path d="M4684 1947 c-3 -8 -4 -43 -2 -78 l3 -64 103 -3 102 -3 0 -323 c0
-266 3 -326 14 -335 9 -8 43 -11 93 -9 l78 3 3 333 2 332 105 0 c120 0 119 -1
113 101 l-3 54 -303 3 c-249 2 -303 0 -308 -11z"/>
<path d="M5521 1564 c-78 -218 -141 -403 -139 -412 3 -14 19 -17 95 -20 l91
-3 27 81 27 81 146 -3 147 -3 26 -75 26 -75 92 -3 c73 -2 92 0 97 12 3 8 -59
195 -138 415 l-143 401 -106 0 -106 0 -142 -396z m298 3 c22 -65 41 -120 41
-123 0 -2 -40 -4 -90 -4 -49 0 -90 3 -90 8 0 22 84 252 90 245 4 -4 26 -61 49
-126z"/>
<path d="M6277 1954 c-4 -4 -7 -186 -7 -404 0 -329 2 -400 14 -409 9 -8 43
-11 93 -9 l78 3 5 220 5 220 21 -45 c11 -25 54 -125 94 -223 l73 -178 71 3 71
3 90 219 90 219 3 -216 c3 -250 -8 -230 117 -225 l70 3 0 410 0 410 -100 3
-100 3 -120 -280 c-65 -154 -121 -278 -124 -275 -3 3 -57 127 -121 277 l-116
272 -100 3 c-55 1 -103 0 -107 -4z"/>
<path d="M7431 1564 c-78 -218 -141 -403 -139 -412 3 -14 19 -17 95 -20 l91
-3 27 81 27 81 146 -3 147 -3 26 -75 26 -75 92 -3 c73 -2 92 0 97 12 3 8 -59
195 -138 415 l-143 401 -106 0 -106 0 -142 -396z m298 3 c22 -65 41 -120 41
-123 0 -2 -40 -4 -90 -4 -49 0 -90 3 -90 8 0 22 84 252 90 245 4 -4 26 -61 49
-126z"/>
<path d="M8927 1953 c-4 -3 -7 -185 -7 -403 0 -329 2 -400 14 -409 9 -8 43
-11 93 -9 l78 3 3 158 c1 86 6 157 10 156 4 0 65 -72 136 -160 l129 -160 106
3 c85 2 106 6 108 18 2 8 -69 100 -157 204 -88 105 -160 193 -160 197 0 3 70
91 155 194 86 103 154 193 152 199 -2 7 -41 12 -108 13 l-104 2 -130 -161
-130 -162 -3 162 -2 162 -89 0 c-48 0 -91 -3 -94 -7z"/>
</g>
</svg>
