<?xml version="1.0" standalone="no"?>
<!DOCTYPE svg PUBLIC "-//W3C//DTD SVG 20010904//EN"
 "http://www.w3.org/TR/2001/REC-SVG-20010904/DTD/svg10.dtd">
<svg version="1.0" xmlns="http://www.w3.org/2000/svg"
 width="70.000000pt" height="70.000000pt" viewBox="0 0 70.000000 70.000000"
 preserveAspectRatio="xMidYMid meet">
<metadata>
Created by potrace 1.14, written by Peter Selinger 2001-2017
</metadata>
<g transform="translate(0.000000,70.000000) scale(0.100000,-0.100000)"
fill="#000000" stroke="none">
<path d="M253 685 c-101 -31 -179 -100 -224 -200 -34 -75 -33 -200 3 -275 38
-81 89 -134 166 -172 59 -29 76 -33 152 -33 71 0 94 4 140 26 82 39 135 90
172 167 30 60 33 75 33 152 -1 70 -5 95 -27 142 -33 72 -103 142 -174 175 -65
29 -177 38 -241 18z m193 -33 c81 -25 156 -89 195 -169 33 -66 34 -196 3 -264
-53 -114 -157 -182 -285 -186 -65 -2 -84 2 -135 26 -152 72 -222 227 -174 385
51 165 228 258 396 208z"/>
<path d="M245 616 c-66 -28 -136 -94 -160 -153 -52 -124 -10 -278 97 -351 67
-46 78 -45 110 13 34 61 36 80 9 65 -42 -22 -101 0 -101 38 0 7 -4 12 -10 12
-17 0 -38 54 -30 76 10 27 48 54 75 54 17 0 17 3 -7 17 -54 34 -56 116 -3 129
14 3 25 10 25 15 0 16 42 30 71 24 33 -7 61 -54 52 -84 -3 -11 1 -9 11 4 40
49 47 55 75 55 28 0 61 -22 61 -40 0 -5 8 -17 19 -27 32 -32 33 -63 1 -94 -16
-16 -39 -29 -52 -29 -22 -1 -22 -1 -3 -12 24 -14 49 -46 52 -69 3 -18 -33 -69
-48 -69 -5 0 -18 -9 -29 -20 -28 -28 -57 -25 -92 10 l-30 31 6 -62 c10 -90 17
-99 67 -88 229 52 311 327 146 492 -50 50 -110 76 -189 83 -52 4 -73 0 -123
-20z"/>
<path d="M268 521 c-7 -10 -23 -21 -35 -25 -59 -19 -27 -91 50 -115 26 -8 47
-17 47 -21 0 -3 -24 -5 -54 -3 -66 2 -96 -16 -96 -57 0 -16 6 -33 13 -37 7 -4
20 -20 30 -35 17 -27 49 -36 73 -20 15 10 41 61 50 97 7 25 9 19 14 -38 4 -52
10 -72 24 -83 26 -19 42 -18 65 5 10 10 28 22 40 26 26 8 36 41 21 71 -12 22
-74 54 -105 54 -8 0 -15 4 -15 9 0 5 21 7 48 5 86 -8 135 44 87 92 -13 13 -25
27 -25 29 -4 38 -55 48 -82 18 -15 -17 -48 -86 -47 -99 0 -3 -2 -8 -5 -11 -3
-3 -5 23 -5 57 1 45 -4 67 -17 81 -22 24 -59 24 -76 0z"/>
</g>
</svg>
