<?xml version="1.0" encoding="UTF-8"?>
<!DOCTYPE svg PUBLIC "-//W3C//DTD SVG 1.1//EN" "http://www.w3.org/Graphics/SVG/1.1/DTD/svg11.dtd">
<svg xmlns="http://www.w3.org/2000/svg" version="1.1" width="1003px" height="228px" style="shape-rendering:geometricPrecision; text-rendering:geometricPrecision; image-rendering:optimizeQuality; fill-rule:evenodd; clip-rule:evenodd" xmlns:xlink="http://www.w3.org/1999/xlink">
<g><path style="opacity:0.971" fill="#f2ba2c" d="M 112.5,-0.5 C 113.167,-0.5 113.833,-0.5 114.5,-0.5C 137.479,22.8125 160.479,46.1458 183.5,69.5C 175.167,78.5 166.5,87.1667 157.5,95.5C 142.833,81.1667 128.167,66.8333 113.5,52.5C 98.8333,66.8333 84.1667,81.1667 69.5,95.5C 60.5,87.1667 51.8333,78.5 43.5,69.5C 66.5211,46.1458 89.5211,22.8125 112.5,-0.5 Z"/></g>
<g><path style="opacity:0.956" fill="#f2ba2c" d="M 265.5,61.5 C 285.189,61.2079 304.856,61.7079 324.5,63C 341.756,66.9842 348.923,77.8176 346,95.5C 343.987,102.181 339.82,107.014 333.5,110C 348.85,115.524 354.683,126.357 351,142.5C 347.495,155.006 339.328,162.173 326.5,164C 306.169,164.5 285.836,164.667 265.5,164.5C 265.5,130.167 265.5,95.8333 265.5,61.5 Z M 287.5,80.5 C 297.506,80.3335 307.506,80.5002 317.5,81C 323.139,81.9706 325.805,85.3039 325.5,91C 325.883,96.2329 323.55,99.5662 318.5,101C 308.232,102.399 297.898,102.899 287.5,102.5C 287.5,95.1667 287.5,87.8333 287.5,80.5 Z M 287.5,120.5 C 298.54,120.215 309.54,120.715 320.5,122C 329.162,125.507 331.662,131.674 328,140.5C 325.9,143.467 323.066,145.3 319.5,146C 308.839,146.5 298.172,146.667 287.5,146.5C 287.5,137.833 287.5,129.167 287.5,120.5 Z"/></g>
<g><path style="opacity:0.936" fill="#f2ba2c" d="M 384.5,61.5 C 391.833,61.5 399.167,61.5 406.5,61.5C 406.5,95.8333 406.5,130.167 406.5,164.5C 399.167,164.5 391.833,164.5 384.5,164.5C 384.5,130.167 384.5,95.8333 384.5,61.5 Z"/></g>
<g><path style="opacity:0.956" fill="#f2ba2c" d="M 444.5,61.5 C 451.755,61.1868 458.921,61.5201 466,62.5C 479.333,84.5 492.667,106.5 506,128.5C 506.5,106.169 506.667,83.8358 506.5,61.5C 513.167,61.5 519.833,61.5 526.5,61.5C 526.5,95.8333 526.5,130.167 526.5,164.5C 519.159,164.666 511.826,164.5 504.5,164C 491.333,142.833 478.167,121.667 465,100.5C 464.5,121.831 464.333,143.164 464.5,164.5C 457.833,164.5 451.167,164.5 444.5,164.5C 444.5,130.167 444.5,95.8333 444.5,61.5 Z"/></g>
<g><path style="opacity:0.96" fill="#f2ba2c" d="M 593.5,61.5 C 601.167,61.5 608.833,61.5 616.5,61.5C 629.833,95.8333 643.167,130.167 656.5,164.5C 648.826,164.666 641.159,164.5 633.5,164C 630.305,156.747 627.305,149.414 624.5,142C 611.5,141.333 598.5,141.333 585.5,142C 582.335,149.329 579.668,156.829 577.5,164.5C 569.493,164.666 561.493,164.5 553.5,164C 567.253,129.994 580.586,95.8277 593.5,61.5 Z M 604.5,88.5 C 608.805,99.7343 613.138,111.068 617.5,122.5C 608.853,123.665 600.186,123.832 591.5,123C 596.131,111.605 600.465,100.105 604.5,88.5 Z"/></g>
<g><path style="opacity:0.956" fill="#f2ba2c" d="M 684.5,61.5 C 691.755,61.1868 698.921,61.5201 706,62.5C 719.333,84.5 732.667,106.5 746,128.5C 746.5,106.169 746.667,83.8358 746.5,61.5C 753.167,61.5 759.833,61.5 766.5,61.5C 766.5,95.8333 766.5,130.167 766.5,164.5C 758.913,164.814 751.413,164.481 744,163.5C 731,142.167 718,120.833 705,99.5C 704.5,121.164 704.333,142.831 704.5,164.5C 697.833,164.5 691.167,164.5 684.5,164.5C 684.5,130.167 684.5,95.8333 684.5,61.5 Z"/></g>
<g><path style="opacity:0.949" fill="#f2ba2c" d="M 846.5,61.5 C 868.593,60.6861 883.26,70.5194 890.5,91C 883.42,93.6517 876.086,95.485 868.5,96.5C 864.112,82.7992 854.779,77.6325 840.5,81C 830.628,84.2146 825.128,91.0479 824,101.5C 823.333,109.167 823.333,116.833 824,124.5C 826.795,141.315 836.629,148.482 853.5,146C 861.939,142.683 867.272,136.516 869.5,127.5C 870.167,127.167 870.833,126.833 871.5,126.5C 877.801,128.38 884.135,130.046 890.5,131.5C 886.827,148.673 876.494,159.506 859.5,164C 831.683,169.114 812.85,158.614 803,132.5C 798.087,112.775 801.087,94.4419 812,77.5C 821.387,67.3868 832.887,62.0535 846.5,61.5 Z"/></g>
<g><path style="opacity:0.943" fill="#f2ba2c" d="M 1002.5,61.5 C 1002.5,67.8333 1002.5,74.1667 1002.5,80.5C 983.833,80.5 965.167,80.5 946.5,80.5C 946.5,87.5 946.5,94.5 946.5,101.5C 963.5,101.5 980.5,101.5 997.5,101.5C 997.5,107.833 997.5,114.167 997.5,120.5C 980.5,120.5 963.5,120.5 946.5,120.5C 946.5,129.167 946.5,137.833 946.5,146.5C 965.167,146.5 983.833,146.5 1002.5,146.5C 1002.5,152.5 1002.5,158.5 1002.5,164.5C 976.5,164.5 950.5,164.5 924.5,164.5C 924.5,130.167 924.5,95.8333 924.5,61.5C 950.5,61.5 976.5,61.5 1002.5,61.5 Z"/></g>
<g><path style="opacity:0.947" fill="#f2ba2c" d="M 112.5,86.5 C 122.287,94.4524 131.287,103.286 139.5,113C 131.362,122.305 122.695,131.139 113.5,139.5C 104.305,131.139 95.6382,122.305 87.5,113C 95.6593,104.007 103.993,95.1739 112.5,86.5 Z"/></g>
<g><path style="opacity:0.954" fill="#f2ba2c" d="M -0.5,114.5 C -0.5,113.833 -0.5,113.167 -0.5,112.5C 8.14608,104.188 16.8127,95.8547 25.5,87.5C 34.5,95.8333 43.1667,104.5 51.5,113.5C 43.1667,122.5 34.5,131.167 25.5,139.5C 16.8127,131.145 8.14608,122.812 -0.5,114.5 Z"/></g>
<g><path style="opacity:0.954" fill="#f2ba2c" d="M 200.5,87.5 C 210.092,95.4234 219.092,104.09 227.5,113.5C 219.167,122.5 210.5,131.167 201.5,139.5C 192.5,131.167 183.833,122.5 175.5,113.5C 183.855,104.813 192.188,96.1461 200.5,87.5 Z"/></g>
<g><path style="opacity:0.967" fill="#f2ba2c" d="M 114.5,227.5 C 113.833,227.5 113.167,227.5 112.5,227.5C 89.8683,204.368 67.0349,181.368 44,158.5C 43.3333,157.5 43.3333,156.5 44,155.5C 52.6509,147.683 61.1509,139.683 69.5,131.5C 84.1667,145.833 98.8333,160.167 113.5,174.5C 128.194,159.972 143.027,145.639 158,131.5C 166.625,139.123 174.958,147.123 183,155.5C 183.667,156.5 183.667,157.5 183,158.5C 159.965,181.368 137.132,204.368 114.5,227.5 Z"/></g>
</svg>
