<?xml version="1.0" encoding="UTF-8"?>
<!DOCTYPE svg PUBLIC "-//W3C//DTD SVG 1.1//EN" "http://www.w3.org/Graphics/SVG/1.1/DTD/svg11.dtd">
<svg xmlns="http://www.w3.org/2000/svg" version="1.1" width="684px" height="120px" style="shape-rendering:geometricPrecision; text-rendering:geometricPrecision; image-rendering:optimizeQuality; fill-rule:evenodd; clip-rule:evenodd" xmlns:xlink="http://www.w3.org/1999/xlink">
<g><path style="opacity:0.969" fill="#e5b10e" d="M 50.5,-0.5 C 51.1667,-0.5 51.8333,-0.5 52.5,-0.5C 62.77,5.64062 73.1033,11.8073 83.5,18C 79.6227,20.4379 75.6227,22.6045 71.5,24.5C 64.8566,20.8719 58.1899,17.2053 51.5,13.5C 44.7304,17.3012 37.8971,20.9679 31,24.5C 27.1016,22.4669 23.2682,20.3003 19.5,18C 29.8967,11.8073 40.23,5.64062 50.5,-0.5 Z"/></g>
<g><path style="opacity:0.965" fill="#e4b00e" d="M -0.5,43.5 C -0.5,38.5 -0.5,33.5 -0.5,28.5C 3.71139,26.9633 7.71139,24.9633 11.5,22.5C 15.3359,24.5836 19.0026,26.917 22.5,29.5C 19.086,31.9574 15.586,34.2907 12,36.5C 11.8275,40.8711 11.3275,45.2044 10.5,49.5C 6.81635,47.4717 3.14968,45.4717 -0.5,43.5 Z"/></g>
<g><path style="opacity:0.951" fill="#deac10" d="M 50.5,22.5 C 54.8085,24.3204 58.8085,26.6537 62.5,29.5C 59.0026,32.083 55.3359,34.4164 51.5,36.5C 47.6277,34.4026 43.961,32.0692 40.5,29.5C 43.8514,27.1414 47.1847,24.8081 50.5,22.5 Z"/></g>
<g><path style="opacity:0.966" fill="#e4b00e" d="M 90.5,22.5 C 95.0158,24.1762 99.1824,26.5095 103,29.5C 103.667,34.1667 103.667,38.8333 103,43.5C 99.4186,45.3735 95.9186,47.3735 92.5,49.5C 91.6725,45.2044 91.1725,40.8711 91,36.5C 87.414,34.2907 83.914,31.9574 80.5,29.5C 83.8624,27.157 87.1957,24.8236 90.5,22.5 Z"/></g>
<g><path style="opacity:0.976" fill="#e4b00f" d="M 401.5,23.5 C 412.481,23.2658 421.814,26.9325 429.5,34.5C 427.565,37.938 425.065,40.938 422,43.5C 411.275,33.7293 400.108,33.0626 388.5,41.5C 378.797,54.1808 379.464,66.3474 390.5,78C 402.184,84.2207 412.851,82.7207 422.5,73.5C 425.5,75.8333 428.167,78.5 430.5,81.5C 415.876,95.1178 399.876,96.9512 382.5,87C 366.225,70.7496 364.725,53.2496 378,34.5C 384.614,28.0272 392.448,24.3605 401.5,23.5 Z"/></g>
<g><path style="opacity:0.008" fill="#423b21" d="M 593.5,25.5 C 597.634,24.5151 601.968,24.1818 606.5,24.5C 606.831,47.3395 606.497,70.0061 605.5,92.5C 605.5,92.1667 605.5,91.8333 605.5,91.5C 605.5,69.5 605.5,47.5 605.5,25.5C 601.833,25.5 598.167,25.5 594.5,25.5C 594.167,25.5 593.833,25.5 593.5,25.5 Z"/></g>
<g><path style="opacity:0.992" fill="#e6b20e" d="M 498.5,91.5 C 494.833,91.5 491.167,91.5 487.5,91.5C 487.5,82.1667 487.5,72.8333 487.5,63.5C 476.654,63.1722 465.987,63.5056 455.5,64.5C 454.507,73.3178 454.173,82.3178 454.5,91.5C 450.833,91.5 447.167,91.5 443.5,91.5C 443.5,69.5 443.5,47.5 443.5,25.5C 447.167,25.5 450.833,25.5 454.5,25.5C 454.173,34.6822 454.507,43.6822 455.5,52.5C 465.833,52.5 476.167,52.5 486.5,52.5C 486.334,43.4938 486.5,34.4938 487,25.5C 491,24.1667 495,24.1667 499,25.5C 499.83,47.6705 499.663,69.6705 498.5,91.5 Z"/></g>
<g><path style="opacity:0.553" fill="#a18019" d="M 443.5,25.5 C 447.298,24.5166 451.298,24.1832 455.5,24.5C 455.5,33.8333 455.5,43.1667 455.5,52.5C 454.507,43.6822 454.173,34.6822 454.5,25.5C 450.833,25.5 447.167,25.5 443.5,25.5 Z"/></g>
<g><path style="opacity:0.977" fill="#e5b10e" d="M 540.5,24.5 C 544.437,24.2065 548.27,24.5399 552,25.5C 562.07,47.6341 571.57,69.9674 580.5,92.5C 576.486,92.6655 572.486,92.4988 568.5,92C 566.167,87 563.833,82 561.5,77C 550.839,76.5002 540.172,76.3335 529.5,76.5C 527.901,81.6235 525.901,86.6235 523.5,91.5C 519.555,92.4909 515.555,92.8242 511.5,92.5C 520.612,69.608 530.279,46.9413 540.5,24.5 Z M 545.5,39.5 C 549.391,47.6261 553.058,55.9594 556.5,64.5C 549.189,65.6646 541.856,65.8313 534.5,65C 538.308,56.5519 541.975,48.0519 545.5,39.5 Z"/></g>
<g><path style="opacity:0.392" fill="#947516" d="M 593.5,25.5 C 593.833,25.5 594.167,25.5 594.5,25.5C 594.5,47.5 594.5,69.5 594.5,91.5C 598.167,91.5 601.833,91.5 605.5,91.5C 605.5,91.8333 605.5,92.1667 605.5,92.5C 601.5,92.5 597.5,92.5 593.5,92.5C 593.5,70.1667 593.5,47.8333 593.5,25.5 Z"/></g>
<g><path style="opacity:1" fill="#efb90a" d="M 594.5,25.5 C 598.167,25.5 601.833,25.5 605.5,25.5C 605.5,47.5 605.5,69.5 605.5,91.5C 601.833,91.5 598.167,91.5 594.5,91.5C 594.5,69.5 594.5,47.5 594.5,25.5 Z"/></g>
<g><path style="opacity:0.985" fill="#e6b10f" d="M 669.5,69.5 C 669.56,70.0431 669.893,70.3764 670.5,70.5C 671.499,55.5148 671.833,40.5148 671.5,25.5C 675.399,24.2092 679.399,24.2092 683.5,25.5C 683.5,47.5 683.5,69.5 683.5,91.5C 679.922,92.5887 676.255,92.7554 672.5,92C 660.618,76.9572 648.951,61.7906 637.5,46.5C 637.217,45.7109 636.717,45.0442 636,44.5C 635.5,60.1631 635.333,75.8298 635.5,91.5C 631.833,91.5 628.167,91.5 624.5,91.5C 624.5,69.1667 624.5,46.8333 624.5,24.5C 628.182,24.3347 631.848,24.5014 635.5,25C 647.049,39.7097 658.382,54.543 669.5,69.5 Z"/></g>
<g><path style="opacity:0.212" fill="#6d5a1b" d="M 671.5,25.5 C 671.833,40.5148 671.499,55.5148 670.5,70.5C 669.893,70.3764 669.56,70.0431 669.5,69.5C 670.167,54.8333 670.833,40.1667 671.5,25.5 Z"/></g>
<g><path style="opacity:0.987" fill="#eab40d" d="M 139.5,26.5 C 152.171,26.3334 164.838,26.5001 177.5,27C 191.341,31.5132 195.174,40.3466 189,53.5C 187.457,55.3783 185.624,56.8783 183.5,58C 193.805,62.1096 197.639,69.6096 195,80.5C 191.384,88.3937 185.217,92.3937 176.5,92.5C 164.167,92.5 151.833,92.5 139.5,92.5C 139.5,70.5 139.5,48.5 139.5,26.5 Z M 153.5,39.5 C 159.509,39.3338 165.509,39.5005 171.5,40C 176.216,41.4942 177.716,44.6609 176,49.5C 175.097,50.7014 173.931,51.5348 172.5,52C 166.222,53.1881 159.888,53.6881 153.5,53.5C 153.5,48.8333 153.5,44.1667 153.5,39.5 Z M 153.5,65.5 C 161.228,65.1885 168.895,65.6885 176.5,67C 180.124,69.1613 181.291,72.328 180,76.5C 179.097,77.7014 177.931,78.5348 176.5,79C 168.841,79.4997 161.174,79.6664 153.5,79.5C 153.5,74.8333 153.5,70.1667 153.5,65.5 Z"/></g>
<g><path style="opacity:0.988" fill="#edb60b" d="M 267.5,26.5 C 267.5,48.5 267.5,70.5 267.5,92.5C 263.5,92.5 259.5,92.5 255.5,92.5C 244.694,79.567 234.361,66.2336 224.5,52.5C 224.44,51.9569 224.107,51.6236 223.5,51.5C 222.501,65.1504 222.167,78.8171 222.5,92.5C 217.833,92.5 213.167,92.5 208.5,92.5C 208.5,70.5 208.5,48.5 208.5,26.5C 213.179,26.3342 217.845,26.5008 222.5,27C 232.691,39.6902 242.691,52.5235 252.5,65.5C 253.499,52.5171 253.832,39.5171 253.5,26.5C 258.167,26.5 262.833,26.5 267.5,26.5 Z"/></g>
<g><path style="opacity:0.212" fill="#735e1b" d="M 267.5,26.5 C 268.497,48.6604 268.831,70.9938 268.5,93.5C 263.968,93.8182 259.634,93.4849 255.5,92.5C 259.5,92.5 263.5,92.5 267.5,92.5C 267.5,70.5 267.5,48.5 267.5,26.5 Z"/></g>
<g><path style="opacity:0.439" fill="#9f7d15" d="M 285.5,26.5 C 285.5,48.5 285.5,70.5 285.5,92.5C 297.833,92.5 310.167,92.5 322.5,92.5C 310.011,93.4954 297.344,93.8287 284.5,93.5C 284.169,70.9938 284.503,48.6604 285.5,26.5 Z"/></g>
<g><path style="opacity:0.987" fill="#eab40d" d="M 285.5,26.5 C 298.171,26.3334 310.838,26.5001 323.5,27C 336.615,31.0641 340.782,39.5641 336,52.5C 334.167,54.3333 332.333,56.1667 330.5,58C 340.048,62.6 343.548,70.1 341,80.5C 337.499,88.349 331.332,92.349 322.5,92.5C 310.167,92.5 297.833,92.5 285.5,92.5C 285.5,70.5 285.5,48.5 285.5,26.5 Z M 299.5,39.5 C 305.509,39.3338 311.509,39.5005 317.5,40C 322.216,41.4942 323.716,44.6609 322,49.5C 321.097,50.7014 319.931,51.5348 318.5,52C 312.231,53.2573 305.898,53.7573 299.5,53.5C 299.5,48.8333 299.5,44.1667 299.5,39.5 Z M 299.5,65.5 C 307.228,65.1885 314.895,65.6885 322.5,67C 326.292,69.0527 327.458,72.2194 326,76.5C 325.097,77.7014 323.931,78.5348 322.5,79C 314.841,79.4997 307.174,79.6664 299.5,79.5C 299.5,74.8333 299.5,70.1667 299.5,65.5 Z"/></g>
<g><path style="opacity:0.989" fill="#eab50c" d="M 29.5,34.5 C 30.8734,34.3433 32.2068,34.51 33.5,35C 39.3359,38.7524 45.3359,42.2524 51.5,45.5C 58.1899,41.7947 64.8566,38.1281 71.5,34.5C 75.2897,36.2291 78.9564,38.2291 82.5,40.5C 83.8333,45.5 83.8333,50.5 82.5,55.5C 76.0855,58.7889 69.9189,62.4556 64,66.5C 63.6667,74.1667 63.3333,81.8333 63,89.5C 59.25,91.9589 55.4166,94.2922 51.5,96.5C 47.5834,94.2922 43.75,91.9589 40,89.5C 39.6667,81.8333 39.3333,74.1667 39,66.5C 33.0811,62.4556 26.9145,58.7889 20.5,55.5C 19.3377,50.533 19.1711,45.533 20,40.5C 23.4845,38.8502 26.6512,36.8502 29.5,34.5 Z"/></g>
<g><path style="opacity:0.322" fill="#856b18" d="M 637.5,46.5 C 636.504,61.6576 636.17,76.9909 636.5,92.5C 632.298,92.8168 628.298,92.4834 624.5,91.5C 628.167,91.5 631.833,91.5 635.5,91.5C 635.333,75.8298 635.5,60.1631 636,44.5C 636.717,45.0442 637.217,45.7109 637.5,46.5 Z"/></g>
<g><path style="opacity:0.439" fill="#9f7d15" d="M 224.5,52.5 C 223.504,65.9898 223.171,79.6565 223.5,93.5C 218.305,93.8205 213.305,93.4872 208.5,92.5C 213.167,92.5 217.833,92.5 222.5,92.5C 222.167,78.8171 222.501,65.1504 223.5,51.5C 224.107,51.6236 224.44,51.9569 224.5,52.5 Z"/></g>
<g><path style="opacity:0.974" fill="#e7b30d" d="M -0.5,52.5 C 3.14968,54.4717 6.81635,56.4717 10.5,58.5C 11.3316,66.4793 11.8316,74.4793 12,82.5C 18.2493,86.0408 24.4159,89.7074 30.5,93.5C 31.8333,98.1667 31.8333,102.833 30.5,107.5C 19.9754,101.741 9.64207,95.7408 -0.5,89.5C -0.5,77.1667 -0.5,64.8333 -0.5,52.5 Z"/></g>
<g><path style="opacity:0.972" fill="#e7b30d" d="M 102.5,52.5 C 103.66,64.6597 103.827,76.9931 103,89.5C 92.9636,95.6992 82.7969,101.699 72.5,107.5C 71.1667,102.833 71.1667,98.1667 72.5,93.5C 78.5841,89.7074 84.7507,86.0408 91,82.5C 91.1684,74.4793 91.6684,66.4793 92.5,58.5C 96.1352,56.8355 99.4685,54.8355 102.5,52.5 Z"/></g>
<g><path style="opacity:0.553" fill="#b38c14" d="M 81.5,65.5 C 81.56,64.9569 81.8933,64.6236 82.5,64.5C 83.8124,69.3181 83.8124,73.9848 82.5,78.5C 82.8182,73.9677 82.4849,69.6344 81.5,65.5 Z"/></g>
<g><path style="opacity:0.553" fill="#ae8914" d="M 455.5,64.5 C 455.5,73.8333 455.5,83.1667 455.5,92.5C 451.298,92.8168 447.298,92.4834 443.5,91.5C 447.167,91.5 450.833,91.5 454.5,91.5C 454.173,82.3178 454.507,73.3178 455.5,64.5 Z"/></g>
<g><path style="opacity:0.212" fill="#705c1b" d="M 455.5,64.5 C 465.987,63.5056 476.654,63.1722 487.5,63.5C 487.5,72.8333 487.5,82.1667 487.5,91.5C 491.167,91.5 494.833,91.5 498.5,91.5C 494.702,92.4834 490.702,92.8168 486.5,92.5C 486.5,83.1667 486.5,73.8333 486.5,64.5C 476.167,64.5 465.833,64.5 455.5,64.5 Z"/></g>
<g><path style="opacity:0.96" fill="#e7b20d" d="M 29.5,69.5 C 30.744,74.2981 30.744,78.9648 29.5,83.5C 20.0658,80.5505 17.0658,74.2172 20.5,64.5C 23.3661,66.4325 26.3661,68.0991 29.5,69.5 Z"/></g>
<g><path style="opacity:0.955" fill="#e8b30d" d="M 81.5,65.5 C 82.4849,69.6344 82.8182,73.9677 82.5,78.5C 79.1944,80.4887 75.8611,82.4887 72.5,84.5C 71.3384,79.8687 71.1717,75.202 72,70.5C 75.1414,68.6804 78.3081,67.0138 81.5,65.5 Z"/></g>
<g><path style="opacity:0.553" fill="#b38d14" d="M 29.5,69.5 C 30.1174,69.6107 30.6174,69.944 31,70.5C 31.8283,75.202 31.6616,79.8687 30.5,84.5C 29.8933,84.3764 29.56,84.0431 29.5,83.5C 30.744,78.9648 30.744,74.2981 29.5,69.5 Z"/></g>
<g><path style="opacity:0.439" fill="#a78415" d="M 139.5,26.5 C 139.5,48.5 139.5,70.5 139.5,92.5C 151.833,92.5 164.167,92.5 176.5,92.5C 164.011,93.4954 151.344,93.8287 138.5,93.5C 138.169,70.9938 138.503,48.6604 139.5,26.5 Z"/></g>
<g><path style="opacity:0.439" fill="#9d7c16" d="M 61.5,100.5 C 61.56,99.9569 61.8933,99.6236 62.5,99.5C 63.8124,104.318 63.8124,108.985 62.5,113.5C 62.8182,108.968 62.4849,104.634 61.5,100.5 Z"/></g>
<g><path style="opacity:0.975" fill="#e6b10e" d="M 61.5,100.5 C 62.4849,104.634 62.8182,108.968 62.5,113.5C 58.8822,115.137 55.5488,117.137 52.5,119.5C 51.8333,119.5 51.1667,119.5 50.5,119.5C 47.2301,117.526 43.8968,115.526 40.5,113.5C 39.3377,108.533 39.1711,103.533 40,98.5C 43.7016,101.032 47.535,103.365 51.5,105.5C 54.5766,103.295 57.9099,101.628 61.5,100.5 Z"/></g>
</svg>
