<?xml version="1.0" encoding="UTF-8"?>
<!DOCTYPE svg PUBLIC "-//W3C//DTD SVG 1.1//EN" "http://www.w3.org/Graphics/SVG/1.1/DTD/svg11.dtd">
<svg xmlns="http://www.w3.org/2000/svg" version="1.1" width="5012px" height="1196px" style="shape-rendering:geometricPrecision; text-rendering:geometricPrecision; image-rendering:optimizeQuality; fill-rule:evenodd; clip-rule:evenodd" xmlns:xlink="http://www.w3.org/1999/xlink">
<g><path style="opacity:0.995" fill="#252122" d="M 542.5,-0.5 C 544.833,-0.5 547.167,-0.5 549.5,-0.5C 674.048,37.6435 798.715,75.8102 923.5,114C 939.603,122.647 943.436,135.147 935,151.5C 929.956,157.606 923.456,160.939 915.5,161.5C 792.137,124.867 668.97,87.5335 546,49.5C 429.773,84.7978 313.606,120.298 197.5,156C 182.34,161.946 170.507,158.113 162,144.5C 157.304,130.255 161.47,119.422 174.5,112C 297.285,74.4768 419.952,36.9768 542.5,-0.5 Z"/></g>
<g><path style="opacity:0.997" fill="#252122" d="M 552.5,1195.5 C 548.167,1195.5 543.833,1195.5 539.5,1195.5C 429.911,1141.42 332.744,1070.09 248,981.5C 107.382,826.182 26.3818,643.516 5,433.5C 2.61896,407.714 0.785632,382.048 -0.5,356.5C -0.5,337.833 -0.5,319.167 -0.5,300.5C 0.740456,256.512 5.90712,212.845 15,169.5C 23.9477,154.909 36.1144,151.409 51.5,159C 53.3333,160.833 55.1667,162.667 57,164.5C 128.755,303.677 200.255,443.01 271.5,582.5C 457.683,583.17 643.849,583.836 830,584.5C 830.833,584.167 831.667,583.833 832.5,583.5C 899.939,444.289 967.106,304.955 1034,165.5C 1047.02,151.405 1060.36,151.072 1074,164.5C 1075.61,167.382 1076.94,170.382 1078,173.5C 1107.8,357.731 1087.8,536.398 1018,709.5C 947.837,875.326 839.004,1009.83 691.5,1113C 647.052,1143.56 600.719,1171.06 552.5,1195.5 Z M 410.5,960.5 C 414.261,968.359 418.261,976.025 422.5,983.5C 443.771,1025.87 465.437,1068.04 487.5,1110C 325.064,1015.22 204.898,882.052 127,710.5C 65.2585,566.385 39.9252,416.052 51,259.5C 170.846,493.193 290.68,726.86 410.5,960.5 Z M 607.5,1108.5 C 695.466,942.57 783.966,776.903 873,611.5C 929.273,495.289 985.273,378.955 1041,262.5C 1051.33,416.867 1026.33,565.2 966,707.5C 897.758,860.135 794.592,983.635 656.5,1078C 640.446,1088.69 624.113,1098.86 607.5,1108.5 Z M 806.5,632.5 C 719.934,794.632 633.1,956.632 546,1118.5C 463.154,956.807 380.32,795.14 297.5,633.5C 466.999,632.5 636.666,632.167 806.5,632.5 Z"/></g>
<g><path style="opacity:0.329" fill="#595659" d="M 4945.5,189.5 C 4967,188.337 4988.66,188.171 5010.5,189C 5009.96,189.717 5009.29,190.217 5008.5,190.5C 4987.67,189.503 4966.67,189.169 4945.5,189.5 Z"/></g>
<g><path style="opacity:0.999" fill="#262223" d="M 1458.5,188.5 C 1584.5,188.5 1710.5,188.5 1836.5,188.5C 1836.5,205.5 1836.5,222.5 1836.5,239.5C 1710.78,239.005 1585.11,239.505 1459.5,241C 1453.28,244.223 1448.78,249.057 1446,255.5C 1445.33,358.5 1445.33,461.5 1446,564.5C 1448.41,571.909 1453.24,577.076 1460.5,580C 1585.79,581.493 1711.12,581.993 1836.5,581.5C 1836.5,598.5 1836.5,615.5 1836.5,632.5C 1711.83,632.667 1587.17,632.5 1462.5,632C 1425.58,626.744 1403.08,605.911 1395,569.5C 1394.33,463.5 1394.33,357.5 1395,251.5C 1402.45,216.549 1423.62,195.549 1458.5,188.5 Z"/></g>
<g><path style="opacity:1" fill="#221f20" d="M 2526.5,189.5 C 2526.5,205.833 2526.5,222.167 2526.5,238.5C 2408.5,238.5 2290.5,238.5 2172.5,238.5C 2172.5,287.5 2172.5,336.5 2172.5,385.5C 2267.5,385.5 2362.5,385.5 2457.5,385.5C 2457.5,402.167 2457.5,418.833 2457.5,435.5C 2362.5,435.5 2267.5,435.5 2172.5,435.5C 2172.5,484.167 2172.5,532.833 2172.5,581.5C 2290.33,582.5 2408.33,582.833 2526.5,582.5C 2526.5,598.833 2526.5,615.167 2526.5,631.5C 2392.17,631.5 2257.83,631.5 2123.5,631.5C 2123.5,484.167 2123.5,336.833 2123.5,189.5C 2257.83,189.5 2392.17,189.5 2526.5,189.5 Z"/></g>
<g><path style="opacity:0.996" fill="#252122" d="M 3190.5,466.5 C 3165.49,466.167 3140.49,466.5 3115.5,467.5C 3115.62,468.107 3115.96,468.44 3116.5,468.5C 3162.49,522.496 3208.16,576.83 3253.5,631.5C 3231.51,632.666 3209.51,632.833 3187.5,632C 3141.5,577.333 3095.5,522.667 3049.5,468C 2993.17,467.667 2936.83,467.333 2880.5,467C 2876.15,466.535 2871.82,466.035 2867.5,465.5C 2866.08,464.549 2864.41,464.216 2862.5,464.5C 2862.5,520.167 2862.5,575.833 2862.5,631.5C 2846.17,631.5 2829.83,631.5 2813.5,631.5C 2812.5,484.334 2812.17,337.001 2812.5,189.5C 2939.83,189.333 3067.17,189.5 3194.5,190C 3229.24,197.409 3249.74,218.575 3256,253.5C 3256.67,303.5 3256.67,353.5 3256,403.5C 3251.29,432.21 3235.46,452.043 3208.5,463C 3202.67,465.124 3196.67,466.291 3190.5,466.5 Z M 2884.5,239.5 C 2984.5,239.333 3084.5,239.5 3184.5,240C 3195.52,242.021 3202.36,248.521 3205,259.5C 3205.67,305.167 3205.67,350.833 3205,396.5C 3203.11,405.396 3197.94,411.563 3189.5,415C 3086.5,415.667 2983.5,415.667 2880.5,415C 2871.9,412.071 2866.4,406.237 2864,397.5C 2863.33,351.5 2863.33,305.5 2864,259.5C 2866.8,248.536 2873.63,241.869 2884.5,239.5 Z"/></g>
<g><path style="opacity:0.999" fill="#231f20" d="M 3963.5,238.5 C 3897.83,238.5 3832.17,238.5 3766.5,238.5C 3766.5,369.5 3766.5,500.5 3766.5,631.5C 3750.17,631.5 3733.83,631.5 3717.5,631.5C 3717.5,500.5 3717.5,369.5 3717.5,238.5C 3651.83,238.5 3586.17,238.5 3520.5,238.5C 3520.5,221.833 3520.5,205.167 3520.5,188.5C 3668.17,188.5 3815.83,188.5 3963.5,188.5C 3963.5,205.167 3963.5,221.833 3963.5,238.5 Z"/></g>
<g><path style="opacity:0.329" fill="#7a787a" d="M 4231.5,631.5 C 4230.5,484.001 4230.17,336.334 4230.5,188.5C 4247.5,188.5 4264.5,188.5 4281.5,188.5C 4281.5,336.5 4281.5,484.5 4281.5,632.5C 4264.66,632.83 4247.99,632.497 4231.5,631.5 Z"/></g>
<g><path style="opacity:1" fill="#231f20" d="M 4231.5,631.5 C 4231.5,484.167 4231.5,336.833 4231.5,189.5C 4247.83,189.5 4264.17,189.5 4280.5,189.5C 4280.5,336.833 4280.5,484.167 4280.5,631.5C 4264.17,631.5 4247.83,631.5 4231.5,631.5 Z"/></g>
<g><path style="opacity:0.995" fill="#252122" d="M 4945.5,189.5 C 4966.67,189.169 4987.67,189.503 5008.5,190.5C 4947.73,263.774 4886.73,336.941 4825.5,410C 4887.04,483.373 4948.38,556.873 5009.5,630.5C 4988.34,631.497 4967.01,631.831 4945.5,631.5C 4891.07,566.564 4836.41,501.731 4781.5,437C 4733.83,436.5 4686.17,436.333 4638.5,436.5C 4638.5,501.833 4638.5,567.167 4638.5,632.5C 4621.59,632.825 4604.76,632.492 4588,631.5C 4587.5,483.834 4587.33,336.167 4587.5,188.5C 4604.5,188.5 4621.5,188.5 4638.5,188.5C 4638.5,253.833 4638.5,319.167 4638.5,384.5C 4686.17,384.667 4733.83,384.5 4781.5,384C 4835.66,318.683 4890.32,253.849 4945.5,189.5 Z"/></g>
<g><path style="opacity:0.329" fill="#716d6f" d="M 2526.5,188.5 C 2526.5,188.833 2526.5,189.167 2526.5,189.5C 2392.17,189.5 2257.83,189.5 2123.5,189.5C 2123.5,336.833 2123.5,484.167 2123.5,631.5C 2257.83,631.5 2392.17,631.5 2526.5,631.5C 2392,632.5 2257.33,632.833 2122.5,632.5C 2122.5,484.5 2122.5,336.5 2122.5,188.5C 2257.17,188.5 2391.83,188.5 2526.5,188.5 Z"/></g>
<g><path style="opacity:0.118" fill="#959393" d="M 2526.5,188.5 C 2527.5,205.325 2527.83,222.325 2527.5,239.5C 2409.5,239.5 2291.5,239.5 2173.5,239.5C 2173.5,287.833 2173.5,336.167 2173.5,384.5C 2268.33,384.167 2363,384.501 2457.5,385.5C 2362.5,385.5 2267.5,385.5 2172.5,385.5C 2172.5,336.5 2172.5,287.5 2172.5,238.5C 2290.5,238.5 2408.5,238.5 2526.5,238.5C 2526.5,222.167 2526.5,205.833 2526.5,189.5C 2526.5,189.167 2526.5,188.833 2526.5,188.5 Z"/></g>
<g><path style="opacity:0.016" fill="#b3b3b3" d="M 3520.5,238.5 C 3586.17,238.5 3651.83,238.5 3717.5,238.5C 3717.5,369.5 3717.5,500.5 3717.5,631.5C 3716.5,501.001 3716.17,370.334 3716.5,239.5C 3651,239.832 3585.66,239.499 3520.5,238.5 Z"/></g>
<g><path style="opacity:0.329" fill="#6b696b" d="M 3963.5,238.5 C 3898.34,239.499 3833,239.832 3767.5,239.5C 3767.5,370.5 3767.5,501.5 3767.5,632.5C 3750.66,632.83 3733.99,632.497 3717.5,631.5C 3733.83,631.5 3750.17,631.5 3766.5,631.5C 3766.5,500.5 3766.5,369.5 3766.5,238.5C 3832.17,238.5 3897.83,238.5 3963.5,238.5 Z"/></g>
<g><path style="opacity:0.012" fill="#b2b2b2" d="M 2457.5,435.5 C 2363,436.499 2268.33,436.833 2173.5,436.5C 2173.5,484.833 2173.5,533.167 2173.5,581.5C 2173.17,581.5 2172.83,581.5 2172.5,581.5C 2172.5,532.833 2172.5,484.167 2172.5,435.5C 2267.5,435.5 2362.5,435.5 2457.5,435.5 Z"/></g>
<g><path style="opacity:0.118" fill="#929292" d="M 3190.5,466.5 C 3165.83,467.167 3141.17,467.833 3116.5,468.5C 3115.96,468.44 3115.62,468.107 3115.5,467.5C 3140.49,466.5 3165.49,466.167 3190.5,466.5 Z"/></g>
<g><path style="opacity:0.329" fill="#6a686a" d="M 2867.5,465.5 C 2866.17,465.5 2864.83,465.5 2863.5,465.5C 2863.5,521.167 2863.5,576.833 2863.5,632.5C 2846.66,632.83 2829.99,632.497 2813.5,631.5C 2829.83,631.5 2846.17,631.5 2862.5,631.5C 2862.5,575.833 2862.5,520.167 2862.5,464.5C 2864.41,464.216 2866.08,464.549 2867.5,465.5 Z"/></g>
<g><path style="opacity:0.118" fill="#767475" d="M 2172.5,581.5 C 2172.83,581.5 2173.17,581.5 2173.5,581.5C 2291.5,581.5 2409.5,581.5 2527.5,581.5C 2527.83,598.342 2527.5,615.008 2526.5,631.5C 2526.5,615.167 2526.5,598.833 2526.5,582.5C 2408.33,582.833 2290.33,582.5 2172.5,581.5 Z"/></g>
<g><path style="opacity:0.569" fill="#5a5656" d="M 806.5,632.5 C 636.666,632.167 466.999,632.5 297.5,633.5C 296.957,633.44 296.624,633.107 296.5,632.5C 466.666,631.167 636.666,631.167 806.5,632.5 Z"/></g>
<g><path style="opacity:0.016" fill="#bebebe" d="M 5009.5,630.5 C 5010.04,630.56 5010.38,630.893 5010.5,631.5C 4988.67,632.828 4967,632.828 4945.5,631.5C 4967.01,631.831 4988.34,631.497 5009.5,630.5 Z"/></g>
<g><path style="opacity:0.976" fill="#3a3638" d="M 410.5,960.5 C 412.912,960.694 413.912,962.027 413.5,964.5C 415.103,964.312 416.437,964.812 417.5,966C 417.167,966.333 416.833,966.667 416.5,967C 419.702,968.787 420.869,971.287 420,974.5C 421.333,975.833 422.667,975.833 424,974.5C 424.692,975.025 425.192,975.692 425.5,976.5C 423.871,976.372 422.538,977.372 421.5,979.5C 422.025,980.192 422.692,980.692 423.5,981C 422.748,981.671 422.414,982.504 422.5,983.5C 418.261,976.025 414.261,968.359 410.5,960.5 Z"/></g>
<g><path style="opacity:0.987" fill="#262223" d="M 2954.5,1112.5 C 2914.5,1112.5 2874.5,1112.5 2834.5,1112.5C 2834.5,1140.17 2834.5,1167.83 2834.5,1195.5C 2827.5,1195.5 2820.5,1195.5 2813.5,1195.5C 2813.5,1133.17 2813.5,1070.83 2813.5,1008.5C 2870.17,1008.5 2926.83,1008.5 2983.5,1008.5C 2983.5,1015.83 2983.5,1023.17 2983.5,1030.5C 2934.17,1030.5 2884.83,1030.5 2835.5,1030.5C 2835.5,1050.83 2835.5,1071.17 2835.5,1091.5C 2875.17,1091.5 2914.83,1091.5 2954.5,1091.5C 2954.5,1098.5 2954.5,1105.5 2954.5,1112.5 Z"/></g>
<g><path style="opacity:0.995" fill="#2a2627" d="M 3193.5,1195.5 C 3147.17,1195.5 3100.83,1195.5 3054.5,1195.5C 3042.44,1191.27 3034.61,1182.94 3031,1170.5C 3030.33,1125.17 3030.33,1079.83 3031,1034.5C 3033.55,1022.28 3040.72,1014.11 3052.5,1010C 3076.29,1008.86 3100.13,1008.36 3124,1008.5C 3147.87,1008.36 3171.71,1008.86 3195.5,1010C 3207.28,1014.11 3214.45,1022.28 3217,1034.5C 3217.67,1079.83 3217.67,1125.17 3217,1170.5C 3213.39,1182.94 3205.56,1191.27 3193.5,1195.5 Z M 3059.5,1030.5 C 3102.5,1030.33 3145.5,1030.5 3188.5,1031C 3191.58,1031.79 3193.75,1033.62 3195,1036.5C 3195.67,1080.17 3195.67,1123.83 3195,1167.5C 3193.88,1169.62 3192.38,1171.46 3190.5,1173C 3146.17,1173.67 3101.83,1173.67 3057.5,1173C 3056.33,1171.83 3055.17,1170.67 3054,1169.5C 3052.34,1125.25 3052.01,1080.92 3053,1036.5C 3054.49,1033.69 3056.66,1031.69 3059.5,1030.5 Z"/></g>
<g><path style="opacity:0.984" fill="#282526" d="M 3438.5,1195.5 C 3392.5,1195.5 3346.5,1195.5 3300.5,1195.5C 3286.07,1191.23 3277.9,1181.56 3276,1166.5C 3275.33,1114.17 3275.33,1061.83 3276,1009.5C 3283.08,1008.52 3290.25,1008.19 3297.5,1008.5C 3297.33,1061.17 3297.5,1113.83 3298,1166.5C 3298.79,1169.58 3300.62,1171.75 3303.5,1173C 3347.5,1173.67 3391.5,1173.67 3435.5,1173C 3436.93,1172.53 3438.1,1171.7 3439,1170.5C 3440.32,1116.92 3440.99,1063.25 3441,1009.5C 3448.08,1008.52 3455.25,1008.19 3462.5,1008.5C 3462.67,1063.17 3462.5,1117.83 3462,1172.5C 3458.21,1184.46 3450.38,1192.12 3438.5,1195.5 Z"/></g>
<g><path style="opacity:0.983" fill="#282425" d="M 3708.5,1195.5 C 3698.5,1195.5 3688.5,1195.5 3678.5,1195.5C 3633.88,1141.71 3589.04,1088.04 3544,1034.5C 3543.5,1088.17 3543.33,1141.83 3543.5,1195.5C 3536.17,1195.5 3528.83,1195.5 3521.5,1195.5C 3521.33,1133.5 3521.5,1071.5 3522,1009.5C 3531.76,1008.35 3541.59,1008.18 3551.5,1009C 3596.33,1062.5 3641.17,1116 3686,1169.5C 3686.33,1116.17 3686.67,1062.83 3687,1009.5C 3694.08,1008.52 3701.25,1008.19 3708.5,1008.5C 3708.5,1070.83 3708.5,1133.17 3708.5,1195.5 Z"/></g>
<g><path style="opacity:0.992" fill="#292626" d="M 3931.5,1195.5 C 3877.17,1195.5 3822.83,1195.5 3768.5,1195.5C 3768.33,1133.5 3768.5,1071.5 3769,1009.5C 3795.6,1008.84 3822.26,1008.5 3849,1008.5C 3877.21,1008.35 3905.37,1008.85 3933.5,1010C 3943.24,1013.41 3950.08,1019.91 3954,1029.5C 3955.65,1076.77 3955.99,1124.11 3955,1171.5C 3951.65,1184.01 3943.82,1192.01 3931.5,1195.5 Z M 3797.5,1030.5 C 3840.5,1030.33 3883.5,1030.5 3926.5,1031C 3928.85,1031.35 3930.68,1032.51 3932,1034.5C 3933.66,1079.08 3933.99,1123.75 3933,1168.5C 3931.83,1170.33 3930.33,1171.83 3928.5,1173C 3884.5,1173.67 3840.5,1173.67 3796.5,1173C 3794.71,1172.22 3793.21,1171.05 3792,1169.5C 3790.35,1125.56 3790.02,1081.56 3791,1037.5C 3792.69,1034.64 3794.86,1032.31 3797.5,1030.5 Z"/></g>
<g><path style="opacity:0.99" fill="#272324" d="M 4202.5,1195.5 C 4195.17,1195.5 4187.83,1195.5 4180.5,1195.5C 4180.5,1172.83 4180.5,1150.17 4180.5,1127.5C 4132.83,1127.5 4085.17,1127.5 4037.5,1127.5C 4037.5,1150.17 4037.5,1172.83 4037.5,1195.5C 4030.17,1195.5 4022.83,1195.5 4015.5,1195.5C 4015.33,1142.5 4015.5,1089.5 4016,1036.5C 4018.5,1020.67 4027.67,1011.5 4043.5,1009C 4065.5,1008.83 4087.5,1008.67 4109.5,1008.5C 4133.21,1008.36 4156.87,1008.86 4180.5,1010C 4190.24,1013.41 4197.08,1019.91 4201,1029.5C 4202.48,1084.79 4202.98,1140.12 4202.5,1195.5 Z M 4180.5,1037.5 C 4180.5,1060.17 4180.5,1082.83 4180.5,1105.5C 4132.83,1105.5 4085.17,1105.5 4037.5,1105.5C 4037.33,1082.83 4037.5,1060.16 4038,1037.5C 4039.5,1034.67 4041.67,1032.5 4044.5,1031C 4087.5,1030.33 4130.5,1030.33 4173.5,1031C 4176.96,1031.96 4179.29,1034.13 4180.5,1037.5 Z"/></g>
<g><path style="opacity:0.991" fill="#221f20" d="M 4439.5,1009.5 C 4439.5,1016.17 4439.5,1022.83 4439.5,1029.5C 4412.17,1029.5 4384.83,1029.5 4357.5,1029.5C 4357.5,1084.83 4357.5,1140.17 4357.5,1195.5C 4350.5,1195.5 4343.5,1195.5 4336.5,1195.5C 4336.5,1140.5 4336.5,1085.5 4336.5,1030.5C 4309.34,1029.5 4282.01,1029.17 4254.5,1029.5C 4254.5,1022.83 4254.5,1016.17 4254.5,1009.5C 4316.17,1009.5 4377.83,1009.5 4439.5,1009.5 Z"/></g>
<g><path style="opacity:0.998" fill="#2c2829" d="M 4512.5,1195.5 C 4505.17,1195.5 4497.83,1195.5 4490.5,1195.5C 4490.33,1133.5 4490.5,1071.5 4491,1009.5C 4498,1008.17 4505,1008.17 4512,1009.5C 4512.5,1071.5 4512.67,1133.5 4512.5,1195.5 Z"/></g>
<g><path style="opacity:0.989" fill="#292526" d="M 4740.5,1195.5 C 4694.5,1195.5 4648.5,1195.5 4602.5,1195.5C 4590.18,1192.01 4582.35,1184.01 4579,1171.5C 4578.33,1125.17 4578.33,1078.83 4579,1032.5C 4583.13,1019.37 4591.97,1011.53 4605.5,1009C 4627.5,1008.83 4649.5,1008.67 4671.5,1008.5C 4695.21,1008.36 4718.87,1008.86 4742.5,1010C 4755.46,1014.63 4762.96,1023.8 4765,1037.5C 4765.67,1080.83 4765.67,1124.17 4765,1167.5C 4762.64,1182.02 4754.47,1191.35 4740.5,1195.5 Z M 4607.5,1030.5 C 4650.5,1030.33 4693.5,1030.5 4736.5,1031C 4738.62,1032.12 4740.46,1033.62 4742,1035.5C 4743.65,1079.11 4743.98,1122.77 4743,1166.5C 4742.21,1168.59 4741.04,1170.42 4739.5,1172C 4694.92,1173.66 4650.25,1173.99 4605.5,1173C 4603.67,1171.83 4602.17,1170.33 4601,1168.5C 4600.33,1124.5 4600.33,1080.5 4601,1036.5C 4602.44,1033.56 4604.6,1031.56 4607.5,1030.5 Z"/></g>
<g><path style="opacity:0.978" fill="#272324" d="M 5011.5,1009.5 C 5011.5,1071.5 5011.5,1133.5 5011.5,1195.5C 5001.5,1195.5 4991.5,1195.5 4981.5,1195.5C 4936.17,1142 4891,1088.33 4846,1034.5C 4845.5,1088.17 4845.33,1141.83 4845.5,1195.5C 4838.5,1195.5 4831.5,1195.5 4824.5,1195.5C 4824.5,1133.17 4824.5,1070.83 4824.5,1008.5C 4834.17,1008.33 4843.84,1008.5 4853.5,1009C 4898.31,1062.78 4943.48,1116.28 4989,1169.5C 4989.5,1115.83 4989.67,1062.17 4989.5,1008.5C 4996.92,1008.2 5004.25,1008.54 5011.5,1009.5 Z"/></g>
<g><path style="opacity:0.329" fill="#7e7c7e" d="M 4439.5,1009.5 C 4377.83,1009.5 4316.17,1009.5 4254.5,1009.5C 4254.5,1016.17 4254.5,1022.83 4254.5,1029.5C 4282.01,1029.17 4309.34,1029.5 4336.5,1030.5C 4308.83,1030.5 4281.17,1030.5 4253.5,1030.5C 4253.5,1023.17 4253.5,1015.83 4253.5,1008.5C 4315.67,1008.17 4377.67,1008.5 4439.5,1009.5 Z"/></g>
<g><path style="opacity:0.329" fill="#838183" d="M 4439.5,1009.5 C 4440.49,1016.31 4440.82,1023.31 4440.5,1030.5C 4413.17,1030.5 4385.83,1030.5 4358.5,1030.5C 4358.5,1085.5 4358.5,1140.5 4358.5,1195.5C 4358.17,1195.5 4357.83,1195.5 4357.5,1195.5C 4357.5,1140.17 4357.5,1084.83 4357.5,1029.5C 4384.83,1029.5 4412.17,1029.5 4439.5,1029.5C 4439.5,1022.83 4439.5,1016.17 4439.5,1009.5 Z"/></g>
<g><path style="opacity:0.329" fill="#595658" d="M 2526.5,1100.5 C 2526.5,1093.83 2526.5,1087.17 2526.5,1080.5C 2149.5,1080.5 1772.5,1080.5 1395.5,1080.5C 1395.5,1087.17 1395.5,1093.83 1395.5,1100.5C 1394.51,1093.69 1394.18,1086.69 1394.5,1079.5C 1772.17,1079.5 2149.83,1079.5 2527.5,1079.5C 2527.82,1086.69 2527.49,1093.69 2526.5,1100.5 Z"/></g>
<g><path style="opacity:0.983" fill="#231f20" d="M 2526.5,1100.5 C 2149.5,1100.5 1772.5,1100.5 1395.5,1100.5C 1395.5,1093.83 1395.5,1087.17 1395.5,1080.5C 1772.5,1080.5 2149.5,1080.5 2526.5,1080.5C 2526.5,1087.17 2526.5,1093.83 2526.5,1100.5 Z"/></g>
<g><path style="opacity:0.118" fill="#cbc3c3" d="M 4180.5,1037.5 C 4181.5,1060.33 4181.83,1083.33 4181.5,1106.5C 4133.33,1106.83 4085.33,1106.5 4037.5,1105.5C 4085.17,1105.5 4132.83,1105.5 4180.5,1105.5C 4180.5,1082.83 4180.5,1060.17 4180.5,1037.5 Z"/></g>
<g><path style="opacity:0.118" fill="#989898" d="M 2954.5,1112.5 C 2915,1113.5 2875.34,1113.83 2835.5,1113.5C 2835.5,1140.83 2835.5,1168.17 2835.5,1195.5C 2835.17,1195.5 2834.83,1195.5 2834.5,1195.5C 2834.5,1167.83 2834.5,1140.17 2834.5,1112.5C 2874.5,1112.5 2914.5,1112.5 2954.5,1112.5 Z"/></g>
</svg>
