<?xml version="1.0" encoding="UTF-8"?>
<!DOCTYPE svg PUBLIC "-//W3C//DTD SVG 1.1//EN" "http://www.w3.org/Graphics/SVG/1.1/DTD/svg11.dtd">
<svg xmlns="http://www.w3.org/2000/svg" version="1.1" width="7094px" height="1250px" style="shape-rendering:geometricPrecision; text-rendering:geometricPrecision; image-rendering:optimizeQuality; fill-rule:evenodd; clip-rule:evenodd" xmlns:xlink="http://www.w3.org/1999/xlink">
<g><path style="opacity:0.993" fill="#091d41" d="M 585.5,-0.5 C 608.167,-0.5 630.833,-0.5 653.5,-0.5C 845.754,14.795 999.92,98.795 1116,251.5C 1211.05,384.029 1250.05,531.695 1233,694.5C 1220.92,760.51 1186.76,811.343 1130.5,847C 1071.63,879.661 1012.3,880.661 952.5,850C 909.588,823.385 881.422,785.552 868,736.5C 863.585,720.09 860.585,703.423 859,686.5C 857.756,638.514 857.089,590.514 857,542.5C 803.749,627.999 750.749,713.666 698,799.5C 682.635,824.533 662.802,845.366 638.5,862C 607.263,879.573 576.93,878.24 547.5,858C 525.893,837.906 513.393,813.073 510,783.5C 508.413,772.553 507.413,761.553 507,750.5C 506.667,682.5 506.333,614.5 506,546.5C 418.833,686.167 331.667,825.833 244.5,965.5C 344.372,1075.51 469.038,1132.17 618.5,1135.5C 753.976,1133.54 870.643,1086.37 968.5,994C 981.941,985.309 996.608,982.309 1012.5,985C 1046.04,994.916 1060.87,1017.42 1057,1052.5C 1055.07,1062.7 1050.73,1071.7 1044,1079.5C 934.1,1182.56 803.6,1239.23 652.5,1249.5C 630.167,1249.5 607.833,1249.5 585.5,1249.5C 393.26,1234.23 239.093,1150.23 123,997.5C 16.9606,847.968 -19.706,682.635 13,501.5C 51.5226,323.769 147.023,186.269 299.5,89C 387.432,35.6808 482.765,5.84744 585.5,-0.5 Z M 605.5,113.5 C 756.12,112.757 883.287,166.423 987,274.5C 1091.12,389.851 1135.45,525.184 1120,680.5C 1112.68,713.141 1094.18,736.974 1064.5,752C 1019.58,765.455 990.416,749.622 977,704.5C 973.03,688.744 970.864,672.744 970.5,656.5C 970.829,612.385 971.162,567.051 971.5,520.5C 971.548,490.024 964.381,461.357 950,434.5C 927.534,400.859 896.368,388.025 856.5,396C 839.854,401.487 824.854,409.82 811.5,421C 786.955,444.212 766.122,470.378 749,499.5C 706.251,569.334 663.251,639.001 620,708.5C 619.667,617.833 619.333,527.167 619,436.5C 617.889,411.498 610.222,388.832 596,368.5C 573.727,344.977 547.227,338.477 516.5,349C 497.299,358.198 481.799,371.698 470,389.5C 371.153,547.203 272.319,704.869 173.5,862.5C 130.235,779.94 110.568,692.107 114.5,599C 126.293,439.385 194.96,310.718 320.5,213C 405.299,151.12 500.299,117.954 605.5,113.5 Z"/></g>
<g><path style="opacity:0.993" fill="#091d41" d="M 1704.5,361.5 C 1771.45,358.88 1832.45,376.38 1887.5,414C 1912.75,437.024 1916.25,462.857 1898,491.5C 1881.74,509.856 1861.91,515.356 1838.5,508C 1813.05,490.066 1785.05,477.732 1754.5,471C 1677.2,458.629 1617.03,484.795 1574,549.5C 1537.06,618.142 1536.4,687.142 1572,756.5C 1611.62,819.633 1668.79,847.467 1743.5,840C 1783.66,833.749 1818.66,817.082 1848.5,790C 1872.02,773.921 1894.86,774.755 1917,792.5C 1934.67,813.867 1936,836.201 1921,859.5C 1846.87,928.646 1759.7,954.146 1659.5,936C 1558.81,910.63 1489.31,849.797 1451,753.5C 1419.2,659.04 1430.2,570.04 1484,486.5C 1538.17,411.252 1611.67,369.585 1704.5,361.5 Z"/></g>
<g><path style="opacity:0.988" fill="#091d41" d="M 2485.5,361.5 C 2526.18,361.083 2550.68,380.75 2559,420.5C 2561.35,449.976 2549.85,472.143 2524.5,487C 2498.73,498.859 2474.4,496.526 2451.5,480C 2428.73,458.261 2422.56,432.428 2433,402.5C 2443.25,379.318 2460.75,365.651 2485.5,361.5 Z"/></g>
<g><path style="opacity:0.993" fill="#091d41" d="M 5908.5,361.5 C 5975.45,358.88 6036.45,376.38 6091.5,414C 6116.75,437.024 6120.25,462.857 6102,491.5C 6085.74,509.856 6065.91,515.356 6042.5,508C 6010.82,485.215 5975.49,471.881 5936.5,468C 5867.79,464.934 5814.96,492.1 5778,549.5C 5741.06,618.142 5740.4,687.142 5776,756.5C 5815.62,819.633 5872.79,847.467 5947.5,840C 5987.66,833.749 6022.66,817.082 6052.5,790C 6076.02,773.921 6098.86,774.755 6121,792.5C 6138.67,813.867 6140,836.201 6125,859.5C 6050.87,928.646 5963.7,954.146 5863.5,936C 5778.63,915.434 5714.8,867.267 5672,791.5C 5634.87,719.106 5627.54,643.772 5650,565.5C 5681.74,470.094 5745.24,406.26 5840.5,374C 5862.86,367.359 5885.53,363.193 5908.5,361.5 Z"/></g>
<g><path style="opacity:0.993" fill="#091d41" d="M 3227.5,631.5 C 3227.44,630.957 3227.11,630.624 3226.5,630.5C 3225.17,713.999 3225.17,797.332 3226.5,880.5C 3223.45,911.38 3206.79,930.213 3176.5,937C 3149.46,938.9 3129.96,927.733 3118,903.5C 3116.8,900.226 3115.8,896.893 3115,893.5C 3113.84,807.196 3113.34,720.863 3113.5,634.5C 3113.67,550.167 3113.83,465.833 3114,381.5C 3120.41,370.249 3129.91,366.416 3142.5,370C 3146.84,372.171 3150.84,374.837 3154.5,378C 3225.33,457.5 3296.17,537 3367,616.5C 3371.77,621.385 3377.44,624.719 3384,626.5C 3387.77,625.579 3391.27,624.079 3394.5,622C 3398.67,617.833 3402.83,613.667 3407,609.5C 3473.04,535.797 3538.7,461.797 3604,387.5C 3608.87,382.3 3614.03,377.467 3619.5,373C 3630.9,366.267 3641.4,367.433 3651,376.5C 3652,378.5 3653,380.5 3654,382.5C 3654.67,550.167 3654.67,717.833 3654,885.5C 3649.83,914.001 3633.66,931.168 3605.5,937C 3577.85,938.766 3558.02,927.266 3546,902.5C 3544.04,897.323 3542.71,891.99 3542,886.5C 3541.67,801.5 3541.33,716.5 3541,631.5C 3495.83,680 3450.67,728.5 3405.5,777C 3391.78,786.641 3377.78,786.974 3363.5,778C 3317.96,729.297 3272.63,680.464 3227.5,631.5 Z"/></g>
<g><path style="opacity:0.995" fill="#091d41" d="M 4579.5,368.5 C 4610.55,367.928 4631.05,382.262 4641,411.5C 4642.32,510.137 4642.99,608.804 4643,707.5C 4685.33,660.5 4727.67,613.5 4770,566.5C 4779.09,555.395 4789.93,546.562 4802.5,540C 4833.08,532.536 4855.24,543.036 4869,571.5C 4875.09,586.308 4874.75,600.975 4868,615.5C 4834.24,653.932 4799.74,691.766 4764.5,729C 4798.33,769.5 4832.17,810 4866,850.5C 4881.88,877.636 4878.38,902.136 4855.5,924C 4830.68,942.744 4806.68,941.744 4783.5,921C 4736.55,866.927 4689.72,812.76 4643,758.5C 4642.67,801.833 4642.33,845.167 4642,888.5C 4634.35,921.581 4613.52,937.748 4579.5,937C 4552.91,932.409 4536.74,916.909 4531,890.5C 4530.33,732.167 4530.33,573.833 4531,415.5C 4536.92,389.079 4553.09,373.412 4579.5,368.5 Z"/></g>
<g><path style="opacity:0.991" fill="#091d41" d="M 5427.5,368.5 C 5456.37,367.669 5476.54,380.336 5488,406.5C 5489.62,411.032 5490.62,415.699 5491,420.5C 5491.5,457.498 5491.67,494.498 5491.5,531.5C 5508.84,531.333 5526.17,531.5 5543.5,532C 5565.01,535.663 5579.17,547.83 5586,568.5C 5591.83,597.337 5581.66,618.504 5555.5,632C 5551.58,633.313 5547.58,634.313 5543.5,635C 5526.17,635.5 5508.84,635.667 5491.5,635.5C 5491.33,686.834 5491.5,738.168 5492,789.5C 5492.21,801.813 5494.21,813.813 5498,825.5C 5502.05,834.945 5509.21,840.111 5519.5,841C 5529.83,841.333 5540.17,841.667 5550.5,842C 5582.53,849.545 5596.7,869.711 5593,902.5C 5586.86,924.302 5572.7,937.469 5550.5,942C 5526.77,943.106 5503.11,942.439 5479.5,940C 5440.64,934.773 5412.81,914.607 5396,879.5C 5386.97,856.682 5381.64,833.015 5380,808.5C 5378.57,750.848 5378.07,693.182 5378.5,635.5C 5366.83,635.667 5355.16,635.5 5343.5,635C 5321.73,630.567 5307.57,617.733 5301,596.5C 5296.29,568.095 5306.79,547.595 5332.5,535C 5336.06,533.592 5339.72,532.592 5343.5,532C 5355.16,531.5 5366.83,531.333 5378.5,531.5C 5378.33,494.165 5378.5,456.832 5379,419.5C 5383.82,391.519 5399.98,374.519 5427.5,368.5 Z"/></g>
<g><path style="opacity:0.993" fill="#091d41" d="M 2157.5,531.5 C 2248.19,531.075 2313.36,571.408 2353,652.5C 2382.85,729.008 2373.18,800.342 2324,866.5C 2264.7,935.708 2191.2,957.208 2103.5,931C 2031.7,902.866 1986.53,851.366 1968,776.5C 1954.57,696.106 1978.74,629.606 2040.5,577C 2075.01,550.328 2114.01,535.162 2157.5,531.5 Z M 2159.5,637.5 C 2209.02,636.662 2240.52,659.995 2254,707.5C 2263.28,749.904 2253.44,787.071 2224.5,819C 2195.28,844.31 2163.28,848.31 2128.5,831C 2097.78,811.753 2080.61,783.919 2077,747.5C 2073.75,714.569 2083.25,686.069 2105.5,662C 2121.04,648.324 2139.04,640.158 2159.5,637.5 Z"/></g>
<g><path style="opacity:0.995" fill="#091d41" d="M 2844.5,531.5 C 2879.83,528.932 2913.16,535.765 2944.5,552C 2980.34,574.867 3003.5,607.034 3014,648.5C 3017.49,662.306 3019.83,676.306 3021,690.5C 3021.67,756.833 3021.67,823.167 3021,889.5C 3014.97,916.2 2998.47,932.033 2971.5,937C 2938.64,937.806 2918.14,922.306 2910,890.5C 2909.67,832.5 2909.33,774.5 2909,716.5C 2910.76,658.26 2882.59,631.426 2824.5,636C 2804.35,638.65 2788.85,648.484 2778,665.5C 2769.16,681.343 2764.5,698.343 2764,716.5C 2763.67,773.833 2763.33,831.167 2763,888.5C 2756.5,918.667 2737.83,935 2707,937.5C 2677.09,935.378 2658.75,919.711 2652,890.5C 2651.33,784.167 2651.33,677.833 2652,571.5C 2660.65,544.922 2678.82,533.755 2706.5,538C 2725.99,544.842 2736.49,558.675 2738,579.5C 2767.93,551.119 2803.43,535.119 2844.5,531.5 Z"/></g>
<g><path style="opacity:0.993" fill="#091d41" d="M 3896.5,531.5 C 3953.39,529.877 4000.56,550.21 4038,592.5C 4039.77,584.605 4041.1,576.605 4042,568.5C 4052.77,541.198 4072.27,531.698 4100.5,540C 4115.38,546.875 4124.21,558.375 4127,574.5C 4127.67,682.833 4127.67,791.167 4127,899.5C 4121.67,922.668 4107.17,935.335 4083.5,937.5C 4064.01,936.178 4050.51,926.512 4043,908.5C 4041.4,899.736 4039.74,891.069 4038,882.5C 4030.21,895.287 4020.05,905.787 4007.5,914C 3951.95,945.809 3894.28,950.475 3834.5,928C 3782.24,901.393 3747.74,859.893 3731,803.5C 3712.63,739.494 3719.63,678.494 3752,620.5C 3785.76,567.532 3833.93,537.865 3896.5,531.5 Z M 3913.5,635.5 C 3963.55,635.106 3996.05,658.773 4011,706.5C 4021.27,751.668 4009.77,790.168 3976.5,822C 3945.13,845.558 3912.46,847.558 3878.5,828C 3848.87,804.745 3833.87,774.078 3833.5,736C 3833.51,703.251 3845.51,675.917 3869.5,654C 3882.72,644.211 3897.38,638.045 3913.5,635.5 Z"/></g>
<g><path style="opacity:0.994" fill="#091d41" d="M 4419.5,531.5 C 4447.58,527.462 4468.75,537.462 4483,561.5C 4493.29,589.639 4486.12,612.139 4461.5,629C 4455.88,632.141 4449.88,634.141 4443.5,635C 4423.22,634.215 4403.56,637.215 4384.5,644C 4363.35,653.152 4350.18,668.986 4345,691.5C 4343.35,698.744 4342.35,706.078 4342,713.5C 4341.67,771.5 4341.33,829.5 4341,887.5C 4334.85,918.481 4316.02,935.148 4284.5,937.5C 4250.79,933.961 4232.29,915.295 4229,881.5C 4228.33,780.833 4228.33,680.167 4229,579.5C 4232.91,550.586 4249.41,536.419 4278.5,537C 4301.24,542.078 4313.74,556.244 4316,579.5C 4335.59,560.45 4358.42,546.617 4384.5,538C 4396.19,535.166 4407.85,532.999 4419.5,531.5 Z"/></g>
<g><path style="opacity:0.993" fill="#091d41" d="M 5070.5,531.5 C 5119.49,528.411 5164.16,540.577 5204.5,568C 5245.29,601.059 5268.79,643.893 5275,696.5C 5275.92,706.494 5276.75,716.494 5277.5,726.5C 5275.75,750.743 5263.08,765.577 5239.5,771C 5162.17,771.5 5084.83,771.667 5007.5,771.5C 5008.72,809.412 5027.72,833.245 5064.5,843C 5094.71,849.53 5124.71,848.53 5154.5,840C 5166.76,835.863 5178.76,831.197 5190.5,826C 5211.16,822.083 5227.66,828.583 5240,845.5C 5252.35,868.758 5248.85,889.258 5229.5,907C 5196.63,930.061 5159.96,941.728 5119.5,942C 5072.38,945.594 5027.72,936.927 4985.5,916C 4936.91,888.022 4907.75,846.189 4898,790.5C 4888.69,736.964 4894.02,684.964 4914,634.5C 4938.83,581.319 4979.99,548.485 5037.5,536C 5048.59,534.073 5059.59,532.573 5070.5,531.5 Z M 5078.5,618.5 C 5134.69,618.355 5164.36,646.355 5167.5,702.5C 5114.17,702.5 5060.83,702.5 5007.5,702.5C 5008.75,655.221 5032.42,627.221 5078.5,618.5 Z"/></g>
<g><path style="opacity:0.994" fill="#091d41" d="M 6343.5,531.5 C 6400.37,529.862 6447.53,550.196 6485,592.5C 6486.55,584.203 6487.88,575.87 6489,567.5C 6500.28,540.945 6519.78,531.778 6547.5,540C 6563.41,547.919 6572.24,560.753 6574,578.5C 6574.67,684.167 6574.67,789.833 6574,895.5C 6569.63,923.872 6553.13,937.705 6524.5,937C 6507.99,934.164 6496.49,924.997 6490,909.5C 6488.19,900.527 6486.52,891.527 6485,882.5C 6472.8,901.362 6456.3,915.196 6435.5,924C 6392.82,942.91 6348.82,946.91 6303.5,936C 6253.02,919.181 6215.85,887.014 6192,839.5C 6160.69,772.929 6159.69,705.929 6189,638.5C 6221.03,574.734 6272.53,539.068 6343.5,531.5 Z M 6359.5,635.5 C 6410.17,635.238 6443,659.238 6458,707.5C 6467.57,751.095 6456.73,788.595 6425.5,820C 6390.53,847.42 6354.87,848.42 6318.5,823C 6285.43,790.76 6273.93,751.927 6284,706.5C 6294.26,666.736 6319.42,643.07 6359.5,635.5 Z"/></g>
<g><path style="opacity:0.993" fill="#091d41" d="M 6880.5,531.5 C 6968.65,530.542 7030.49,570.208 7066,650.5C 7084.02,699.729 7086.36,749.729 7073,800.5C 7057.94,853.179 7027.1,893.679 6980.5,922C 6939.75,942.809 6897.08,947.809 6852.5,937C 6829.49,932.406 6808.32,923.572 6789,910.5C 6788.67,959.167 6788.33,1007.83 6788,1056.5C 6783.54,1085.27 6767.04,1102.43 6738.5,1108C 6703.41,1108.92 6682.58,1092.08 6676,1057.5C 6675.01,894.804 6675.34,732.138 6677,569.5C 6685.05,546.559 6701.21,535.726 6725.5,537C 6741.49,540.322 6752.65,549.489 6759,564.5C 6760.97,570.696 6762.31,577.029 6763,583.5C 6795.55,551.312 6834.71,533.979 6880.5,531.5 Z M 6871.5,635.5 C 6921.23,635.459 6952.73,659.459 6966,707.5C 6973.54,741.599 6967.87,773.599 6949,803.5C 6918.57,842.815 6881.07,851.315 6836.5,829C 6808.25,809.696 6792.42,782.863 6789,748.5C 6785.33,711.84 6796.83,681.006 6823.5,656C 6837.79,645.018 6853.79,638.185 6871.5,635.5 Z"/></g>
<g><path style="opacity:0.995" fill="#091e41" d="M 2485.5,536.5 C 2514.13,535.222 2534.3,547.555 2546,573.5C 2547.31,577.42 2548.31,581.42 2549,585.5C 2549.67,686.5 2549.67,787.5 2549,888.5C 2542.4,918.938 2523.56,935.271 2492.5,937.5C 2458.33,933.829 2439.83,914.829 2437,880.5C 2436.02,781.481 2436.36,682.481 2438,583.5C 2443.79,557.539 2459.63,541.872 2485.5,536.5 Z"/></g>
<g><path style="opacity:0.125" fill="#082040" d="M 3227.5,631.5 C 3226.5,714.332 3226.17,797.332 3226.5,880.5C 3225.17,797.332 3225.17,713.999 3226.5,630.5C 3227.11,630.624 3227.44,630.957 3227.5,631.5 Z"/></g>
</svg>
