<?xml version="1.0" encoding="UTF-8"?>
<!DOCTYPE svg PUBLIC "-//W3C//DTD SVG 1.1//EN" "http://www.w3.org/Graphics/SVG/1.1/DTD/svg11.dtd">
<svg xmlns="http://www.w3.org/2000/svg" version="1.1" width="936px" height="223px" style="shape-rendering:geometricPrecision; text-rendering:geometricPrecision; image-rendering:optimizeQuality; fill-rule:evenodd; clip-rule:evenodd" xmlns:xlink="http://www.w3.org/1999/xlink">
<g><path style="opacity:1" fill="#f68b30" d="M 13.5,-0.5 C 14.5,-0.5 15.5,-0.5 16.5,-0.5C 24.1667,2.83333 31.8333,6.16667 39.5,9.5C 37.0547,9.14236 34.388,9.14236 31.5,9.5C 33.0396,10.5321 33.5396,11.8654 33,13.5C 32.6667,13.1667 32.3333,12.8333 32,12.5C 31.51,13.7932 31.3433,15.1266 31.5,16.5C 34.772,16.0511 38.1053,15.7178 41.5,15.5C 41.8333,15.8333 42.1667,16.1667 42.5,16.5C 41.689,17.2164 41.0223,18.0497 40.5,19C 41.7221,20.563 41.7221,22.063 40.5,23.5C 33.5178,18.8592 26.5178,14.1925 19.5,9.5C 18.5224,9.97665 17.6891,10.6433 17,11.5C 14.1291,20.6132 10.9624,29.6132 7.5,38.5C 12.9735,58.7273 17.9735,79.0606 22.5,99.5C 20.6854,98.3702 18.6854,97.7036 16.5,97.5C 16.6495,96.448 16.4828,95.448 16,94.5C 14.1079,95.6174 13.2746,97.2841 13.5,99.5C 8.83333,79.1667 4.16667,58.8333 -0.5,38.5C -0.5,36.1667 -0.5,33.8333 -0.5,31.5C 2.72986,22.3124 5.89652,12.9791 9,3.5C 10.2499,1.8065 11.7499,0.473169 13.5,-0.5 Z"/></g>
<g><path style="opacity:1" fill="#f58522" d="M 39.5,9.5 C 54.2447,14.702 68.9113,20.202 83.5,26C 105.167,26.6667 126.833,26.6667 148.5,26C 160.83,21.3909 173.164,16.8909 185.5,12.5C 187.758,12.7751 188.092,13.7751 186.5,15.5C 189.245,16.8181 190.912,18.9848 191.5,22C 189.574,22.4224 188.574,23.5891 188.5,25.5C 171.627,38.5242 154.294,51.0242 136.5,63C 133.808,65.6324 134.141,67.9658 137.5,70C 146.456,76.6208 155.123,83.6208 163.5,91C 178.141,94.7841 192.641,98.9508 207,103.5C 207.708,102.619 208.542,101.953 209.5,101.5C 210.222,101.918 210.722,102.584 211,103.5C 212.84,102.167 213.34,102.334 212.5,104C 213.333,104.833 214.167,105.667 215,106.5C 215.186,109.036 215.686,111.369 216.5,113.5C 221.881,129.518 226.881,145.685 231.5,162C 227.221,178.283 222.555,194.449 217.5,210.5C 215.999,211.752 214.332,212.752 212.5,213.5C 197.255,208.855 181.922,204.522 166.5,200.5C 164.701,200.577 163.034,201.077 161.5,202C 152.946,209.094 144.279,215.927 135.5,222.5C 122.833,222.5 110.167,222.5 97.5,222.5C 89.2357,216.02 80.9024,209.52 72.5,203C 70.7912,201.455 68.7912,200.622 66.5,200.5C 50.9396,204.599 35.4396,208.932 20,213.5C 18.5272,213.097 17.1939,212.43 16,211.5C 10.2609,195.114 5.4276,178.447 1.5,161.5C 6.49781,144.839 11.4978,128.173 16.5,111.5C 14.872,107.655 13.872,103.655 13.5,99.5C 13.2746,97.2841 14.1079,95.6174 16,94.5C 16.4828,95.448 16.6495,96.448 16.5,97.5C 18.6854,97.7036 20.6854,98.3702 22.5,99.5C 23.2323,100.808 24.0656,102.142 25,103.5C 39.4492,99.2617 53.9492,95.095 68.5,91C 78.6698,82.9925 88.6698,74.8258 98.5,66.5C 96.3119,63.4782 93.6452,60.9782 90.5,59C 73.5908,47.3904 56.9241,35.5571 40.5,23.5C 41.7221,22.063 41.7221,20.563 40.5,19C 41.0223,18.0497 41.689,17.2164 42.5,16.5C 42.1667,16.1667 41.8333,15.8333 41.5,15.5C 38.1053,15.7178 34.772,16.0511 31.5,16.5C 31.3433,15.1266 31.51,13.7932 32,12.5C 32.3333,12.8333 32.6667,13.1667 33,13.5C 33.5396,11.8654 33.0396,10.5321 31.5,9.5C 34.388,9.14236 37.0547,9.14236 39.5,9.5 Z M 88.5,131.5 C 89.4959,131.414 90.3292,131.748 91,132.5C 93.222,136.501 95.0553,140.667 96.5,145C 96.3552,145.772 96.0219,146.439 95.5,147C 90.7654,146.652 86.0987,145.652 81.5,144C 78.7494,143.484 76.4161,142.317 74.5,140.5C 74.9186,139.328 75.5853,138.328 76.5,137.5C 80.6916,135.672 84.6916,133.672 88.5,131.5 Z M 141.5,132.5 C 146.67,133.746 151.67,135.58 156.5,138C 157.517,139.049 157.684,140.216 157,141.5C 150.43,144.516 143.597,146.35 136.5,147C 135.483,145.951 135.316,144.784 136,143.5C 137.847,139.807 139.68,136.14 141.5,132.5 Z M 134.5,198.5 C 122.914,199.478 111.247,199.811 99.5,199.5C 98.2822,194.288 98.4489,188.954 100,183.5C 100.75,182.874 101.584,182.374 102.5,182C 107,181.833 111.5,181.667 116,181.5C 121.275,181.384 126.442,181.884 131.5,183C 132.971,188.056 133.971,193.222 134.5,198.5 Z"/></g>
<g><path style="opacity:0.997" fill="#f68b2f" d="M 216.5,-0.5 C 217.5,-0.5 218.5,-0.5 219.5,-0.5C 221.475,0.646381 222.975,2.31305 224,4.5C 227.167,14.6667 230.333,24.8333 233.5,35C 227.891,61.2153 222.224,87.382 216.5,113.5C 215.686,111.369 215.186,109.036 215,106.5C 214.167,105.667 213.333,104.833 212.5,104C 213.34,102.334 212.84,102.167 211,103.5C 210.722,102.584 210.222,101.918 209.5,101.5C 214.014,81.4421 218.848,61.4421 224,41.5C 224.667,39.8333 224.667,38.1667 224,36.5C 221,27.8333 218,19.1667 215,10.5C 214.439,9.97814 213.772,9.6448 213,9.5C 204.943,15.067 196.777,20.4003 188.5,25.5C 188.574,23.5891 189.574,22.4224 191.5,22C 190.912,18.9848 189.245,16.8181 186.5,15.5C 188.092,13.7751 187.758,12.7751 185.5,12.5C 195.752,7.97158 206.085,3.63825 216.5,-0.5 Z"/></g>
<g><path style="opacity:0.946" fill="#151514" d="M 816.5,69.5 C 829.821,68.0969 840.654,72.4302 849,82.5C 851.209,86.705 852.042,91.0383 851.5,95.5C 844.532,96.497 837.532,96.8303 830.5,96.5C 830.434,90.2677 827.267,87.2677 821,87.5C 812.993,88.0138 810.826,91.8471 814.5,99C 816.5,100 818.5,101 820.5,102C 831.345,103.828 840.845,108.328 849,115.5C 855.934,128.731 853.767,140.231 842.5,150C 828.294,157.537 814.294,157.204 800.5,149C 793.654,143.811 790.821,136.977 792,128.5C 798.744,127.521 805.578,127.188 812.5,127.5C 812.302,134.305 815.636,137.972 822.5,138.5C 830.442,137.766 833.276,133.766 831,126.5C 824.349,122.502 817.182,119.669 809.5,118C 793.811,112.456 788.311,101.623 793,85.5C 798.071,76.0521 805.904,70.7187 816.5,69.5 Z"/></g>
<g><path style="opacity:0.953" fill="#151514" d="M 277.5,70.5 C 284.5,70.5 291.5,70.5 298.5,70.5C 306.032,89.2526 313.865,107.919 322,126.5C 329.541,108.044 337.374,89.7104 345.5,71.5C 352.142,70.3358 358.808,70.1691 365.5,71C 366,71.5 366.5,72 367,72.5C 367.667,99.5 367.667,126.5 367,153.5C 360.667,154.833 354.333,154.833 348,153.5C 347.667,139.5 347.333,125.5 347,111.5C 341.296,125.739 335.463,139.905 329.5,154C 324.249,154.804 319.082,154.637 314,153.5C 308.057,139.948 302.391,126.281 297,112.5C 296.667,126.167 296.333,139.833 296,153.5C 289.667,154.833 283.333,154.833 277,153.5C 276.176,125.761 276.343,98.0947 277.5,70.5 Z"/></g>
<g><path style="opacity:0.956" fill="#151514" d="M 383.5,70.5 C 399.503,70.3334 415.503,70.5001 431.5,71C 432.833,76.3333 432.833,81.6667 431.5,87C 421.839,87.4998 412.172,87.6665 402.5,87.5C 402.5,92.8333 402.5,98.1667 402.5,103.5C 410.84,103.334 419.173,103.5 427.5,104C 428,104.5 428.5,105 429,105.5C 429.802,110.419 429.635,115.252 428.5,120C 419.84,120.5 411.173,120.666 402.5,120.5C 402.5,126.167 402.5,131.833 402.5,137.5C 412.416,137.181 422.25,137.514 432,138.5C 432.804,143.751 432.637,148.918 431.5,154C 415.259,154.824 399.093,154.658 383,153.5C 382.176,125.761 382.343,98.0947 383.5,70.5 Z"/></g>
<g><path style="opacity:0.955" fill="#151514" d="M 443.5,70.5 C 463.503,70.3334 483.503,70.5 503.5,71C 504.833,76.3333 504.833,81.6667 503.5,87C 496.842,87.4996 490.175,87.6663 483.5,87.5C 483.667,109.503 483.5,131.503 483,153.5C 476.667,154.833 470.333,154.833 464,153.5C 463.5,131.503 463.333,109.503 463.5,87.5C 456.5,87.5 449.5,87.5 442.5,87.5C 442.214,81.7414 442.548,76.0748 443.5,70.5 Z"/></g>
<g><path style="opacity:0.952" fill="#151514" d="M 540.5,70.5 C 547.863,70.1694 555.197,70.5027 562.5,71.5C 572.167,98.1667 581.833,124.833 591.5,151.5C 591.167,152.167 590.833,152.833 590.5,153.5C 583.833,154.833 577.167,154.833 570.5,153.5C 568.927,148.945 567.26,144.445 565.5,140C 555.839,139.5 546.172,139.334 536.5,139.5C 535.167,144.5 533.833,149.5 532.5,154.5C 525.825,154.666 519.158,154.5 512.5,154C 511.978,153.439 511.645,152.772 511.5,152C 521.273,124.848 530.939,97.6811 540.5,70.5 Z M 550.5,98.5 C 551.117,98.6107 551.617,98.944 552,99.5C 554.401,106.871 556.901,114.204 559.5,121.5C 553.863,122.663 548.196,122.83 542.5,122C 545.864,114.409 548.53,106.575 550.5,98.5 Z"/></g>
<g><path style="opacity:0.953" fill="#151514" d="M 602.5,70.5 C 609.5,70.5 616.5,70.5 623.5,70.5C 631.032,89.2526 638.865,107.919 647,126.5C 654.541,108.044 662.374,89.7104 670.5,71.5C 677.142,70.3358 683.808,70.1691 690.5,71C 691,71.5 691.5,72 692,72.5C 692.667,99.5 692.667,126.5 692,153.5C 685.667,154.833 679.333,154.833 673,153.5C 672.667,139.5 672.333,125.5 672,111.5C 666.296,125.739 660.463,139.905 654.5,154C 649.249,154.804 644.082,154.637 639,153.5C 633.057,139.948 627.391,126.281 622,112.5C 621.667,126.167 621.333,139.833 621,153.5C 614.667,154.833 608.333,154.833 602,153.5C 601.176,125.761 601.343,98.0947 602.5,70.5 Z"/></g>
<g><path style="opacity:0.952" fill="#151514" d="M 731.5,70.5 C 738.863,70.1694 746.197,70.5027 753.5,71.5C 763.167,98.1667 772.833,124.833 782.5,151.5C 782.167,152.167 781.833,152.833 781.5,153.5C 774.833,154.833 768.167,154.833 761.5,153.5C 759.927,148.945 758.26,144.445 756.5,140C 746.839,139.5 737.172,139.334 727.5,139.5C 726.167,144.5 724.833,149.5 723.5,154.5C 716.825,154.666 710.158,154.5 703.5,154C 702.978,153.439 702.645,152.772 702.5,152C 712.273,124.848 721.939,97.6811 731.5,70.5 Z M 741.5,98.5 C 742.117,98.6107 742.617,98.944 743,99.5C 745.401,106.871 747.901,114.204 750.5,121.5C 744.863,122.663 739.196,122.83 733.5,122C 736.864,114.409 739.53,106.575 741.5,98.5 Z"/></g>
<g><path style="opacity:0.948" fill="#151514" d="M 935.5,150.5 C 935.5,151.167 935.5,151.833 935.5,152.5C 927.766,154.582 919.766,155.082 911.5,154C 903.333,143.833 895.167,133.667 887,123.5C 886.667,133.5 886.333,143.5 886,153.5C 879.916,154.642 873.749,154.809 867.5,154C 866.838,140.24 866.504,126.406 866.5,112.5C 866.504,98.5937 866.838,84.7603 867.5,71C 873.167,70.3333 878.833,70.3333 884.5,71C 885,71.5 885.5,72 886,72.5C 886.333,82.1667 886.667,91.8333 887,101.5C 894.978,91.3548 903.144,81.3548 911.5,71.5C 918.833,70.1667 926.167,70.1667 933.5,71.5C 933.833,72.1667 934.167,72.8333 934.5,73.5C 924.022,86.4793 913.355,99.3126 902.5,112C 913.365,125.025 924.365,137.859 935.5,150.5 Z"/></g>
<g><path style="opacity:0.541" fill="#f9b67a" d="M 134.5,198.5 C 129.04,199.829 123.207,200.496 117,200.5C 110.99,200.499 105.157,200.166 99.5,199.5C 111.247,199.811 122.914,199.478 134.5,198.5 Z"/></g>
</svg>
