<?xml version="1.0" encoding="UTF-8"?>
<!DOCTYPE svg PUBLIC "-//W3C//DTD SVG 1.1//EN" "http://www.w3.org/Graphics/SVG/1.1/DTD/svg11.dtd">
<svg xmlns="http://www.w3.org/2000/svg" version="1.1" width="1171px" height="280px" style="shape-rendering:geometricPrecision; text-rendering:geometricPrecision; image-rendering:optimizeQuality; fill-rule:evenodd; clip-rule:evenodd" xmlns:xlink="http://www.w3.org/1999/xlink">
<g><path style="opacity:0.989" fill="#3375bb" d="M 84.5,-0.5 C 121.5,-0.5 158.5,-0.5 195.5,-0.5C 235.888,2.04228 263.055,22.3756 277,60.5C 279.483,71.6951 280.816,83.0284 281,94.5C 281.667,124.833 281.667,155.167 281,185.5C 282.467,225.088 265.967,254.255 231.5,273C 224.23,275.812 216.896,277.979 209.5,279.5C 163.167,279.5 116.833,279.5 70.5,279.5C 26.6043,268.604 2.93767,240.604 -0.5,195.5C -0.5,158.5 -0.5,121.5 -0.5,84.5C 1.42589,47.7352 19.0926,21.5685 52.5,6C 63.0689,2.66481 73.7356,0.498142 84.5,-0.5 Z M 139.5,55.5 C 140.873,55.3433 142.207,55.51 143.5,56C 164.725,70.8939 188.392,77.8939 214.5,77C 217.877,79.4552 219.543,82.7885 219.5,87C 218.892,108.892 217.392,130.726 215,152.5C 213.466,169.442 207.8,184.776 198,198.5C 194.799,202.036 191.299,205.203 187.5,208C 172.5,217.52 157.167,226.353 141.5,234.5C 126.261,226.544 111.261,218.044 96.5,209C 78.7146,194.933 69.2146,176.433 68,153.5C 65.0314,129.919 63.6981,106.252 64,82.5C 64.6853,79.9427 66.1853,78.1094 68.5,77C 94.8471,78.0061 118.514,70.8394 139.5,55.5 Z"/></g>
<g><path style="opacity:0.985" fill="#3375bb" d="M 140.5,74.5 C 159.1,86.2549 179.434,92.5882 201.5,93.5C 201.559,116.325 199.726,138.992 196,161.5C 194.129,173.409 188.963,183.576 180.5,192C 167.73,200.47 154.564,208.303 141,215.5C 129.767,209.133 118.601,202.633 107.5,196C 98.5209,189.542 92.3542,181.042 89,170.5C 83.0543,145.147 80.8877,119.48 82.5,93.5C 96.9678,92.4396 110.968,89.2729 124.5,84C 130.392,81.5625 135.726,78.3958 140.5,74.5 Z"/></g>
<g><path style="opacity:0.952" fill="#3375bb" d="M 959.5,87.5 C 967.167,87.5 974.833,87.5 982.5,87.5C 982.5,122.5 982.5,157.5 982.5,192.5C 974.833,192.5 967.167,192.5 959.5,192.5C 959.5,157.5 959.5,122.5 959.5,87.5 Z"/></g>
<g><path style="opacity:0.963" fill="#3375bb" d="M 997.5,87.5 C 1005.17,87.5 1012.83,87.5 1020.5,87.5C 1020.5,122.5 1020.5,157.5 1020.5,192.5C 1012.83,192.5 1005.17,192.5 997.5,192.5C 997.5,157.5 997.5,122.5 997.5,87.5 Z"/></g>
<g><path style="opacity:0.988" fill="#3375bb" d="M 322.5,93.5 C 351.5,93.5 380.5,93.5 409.5,93.5C 409.5,99.8333 409.5,106.167 409.5,112.5C 398.833,112.5 388.167,112.5 377.5,112.5C 377.5,139.167 377.5,165.833 377.5,192.5C 369.833,192.5 362.167,192.5 354.5,192.5C 354.5,165.833 354.5,139.167 354.5,112.5C 343.833,112.5 333.167,112.5 322.5,112.5C 322.5,106.167 322.5,99.8333 322.5,93.5 Z"/></g>
<g><path style="opacity:0.962" fill="#3375bb" d="M 718.5,93.5 C 726.833,93.5 735.167,93.5 743.5,93.5C 749.693,115.747 756.693,137.747 764.5,159.5C 772.435,137.696 779.768,115.696 786.5,93.5C 794.196,93.1692 801.862,93.5025 809.5,94.5C 816.766,116.463 823.932,138.463 831,160.5C 838.584,138.581 846.084,116.581 853.5,94.5C 861.167,93.1667 868.833,93.1667 876.5,94.5C 865.833,126.833 855.167,159.167 844.5,191.5C 835.859,192.498 827.192,192.831 818.5,192.5C 811.774,171.154 804.941,149.821 798,128.5C 790.48,149.392 783.147,170.392 776,191.5C 767.579,192.649 759.079,192.816 750.5,192C 739.332,159.331 728.666,126.497 718.5,93.5 Z"/></g>
<g><path style="opacity:0.954" fill="#3375bb" d="M 635.5,99.5 C 643.167,99.5 650.833,99.5 658.5,99.5C 658.5,105.5 658.5,111.5 658.5,117.5C 664.833,117.5 671.167,117.5 677.5,117.5C 677.5,123.5 677.5,129.5 677.5,135.5C 671.167,135.5 664.833,135.5 658.5,135.5C 658.333,147.171 658.5,158.838 659,170.5C 660.813,173.413 663.48,175.079 667,175.5C 670.273,174.624 673.439,173.79 676.5,173C 678.491,177.985 680.491,182.985 682.5,188C 677.189,192.374 671.023,194.207 664,193.5C 651.393,194.702 642.393,189.702 637,178.5C 635.57,164.226 635.07,149.892 635.5,135.5C 631.5,135.5 627.5,135.5 623.5,135.5C 623.5,129.5 623.5,123.5 623.5,117.5C 627.5,117.5 631.5,117.5 635.5,117.5C 635.5,111.5 635.5,105.5 635.5,99.5 Z"/></g>
<g><path style="opacity:0.96" fill="#3375bb" d="M 1170.5,187.5 C 1170.5,188.167 1170.5,188.833 1170.5,189.5C 1158.6,194.62 1146.6,194.787 1134.5,190C 1126.51,184.738 1122.68,177.238 1123,167.5C 1122.5,156.839 1122.33,146.172 1122.5,135.5C 1118.83,135.5 1115.17,135.5 1111.5,135.5C 1111.5,129.5 1111.5,123.5 1111.5,117.5C 1115.17,117.5 1118.83,117.5 1122.5,117.5C 1122.5,111.5 1122.5,105.5 1122.5,99.5C 1130.17,99.5 1137.83,99.5 1145.5,99.5C 1145.5,105.5 1145.5,111.5 1145.5,117.5C 1151.83,117.5 1158.17,117.5 1164.5,117.5C 1164.5,123.5 1164.5,129.5 1164.5,135.5C 1158.17,135.5 1151.83,135.5 1145.5,135.5C 1145.09,147.229 1145.59,158.896 1147,170.5C 1148.57,173.813 1151.23,175.479 1155,175.5C 1158.01,174.997 1160.84,173.997 1163.5,172.5C 1166.04,177.483 1168.37,182.483 1170.5,187.5 Z"/></g>
<g><path style="opacity:0.955" fill="#3375bb" d="M 455.5,114.5 C 457.5,114.5 459.5,114.5 461.5,114.5C 461.666,121.841 461.5,129.174 461,136.5C 449.158,133.883 441.158,138.216 437,149.5C 436.5,163.829 436.333,178.163 436.5,192.5C 428.833,192.5 421.167,192.5 413.5,192.5C 413.5,166.833 413.5,141.167 413.5,115.5C 420.833,115.5 428.167,115.5 435.5,115.5C 435.336,118.187 435.503,120.854 436,123.5C 441.64,118.461 448.14,115.461 455.5,114.5 Z"/></g>
<g><path style="opacity:0.948" fill="#3375bb" d="M 585.5,114.5 C 593.937,114.29 602.27,115.123 610.5,117C 614.604,117.914 618.27,119.581 621.5,122C 619.705,127.256 617.372,132.256 614.5,137C 607.463,134.579 600.13,133.079 592.5,132.5C 587.969,132.116 583.802,133.116 580,135.5C 577.778,138.51 578.278,141.01 581.5,143C 591.527,145.205 601.527,147.539 611.5,150C 619.793,153.577 624.127,159.91 624.5,169C 623.919,179.163 618.919,186.163 609.5,190C 593.407,194.875 577.407,194.542 561.5,189C 558.79,187.985 556.457,186.485 554.5,184.5C 557.182,179.136 559.849,173.802 562.5,168.5C 574.107,175.658 586.44,177.491 599.5,174C 603.753,169.519 602.753,166.519 596.5,165C 586.236,163.735 576.236,161.401 566.5,158C 558.068,152.385 554.902,144.552 557,134.5C 559.068,126.099 564.234,120.599 572.5,118C 576.86,116.417 581.194,115.25 585.5,114.5 Z"/></g>
<g><path style="opacity:0.958" fill="#3375bb" d="M 901.5,114.5 C 913.344,113.581 924.344,116.081 934.5,122C 939.337,126.502 942.503,132.002 944,138.5C 944.5,156.497 944.667,174.497 944.5,192.5C 937.5,192.5 930.5,192.5 923.5,192.5C 924.581,185.856 923.247,184.689 919.5,189C 908.482,194.197 897.148,194.864 885.5,191C 873.781,184.852 869.615,175.352 873,162.5C 877.015,153.836 883.849,149.003 893.5,148C 902.827,147.5 912.161,147.334 921.5,147.5C 921.686,140.365 918.352,135.865 911.5,134C 901.072,132.257 891.572,134.424 883,140.5C 879.912,135.325 877.079,129.992 874.5,124.5C 882.727,118.868 891.727,115.535 901.5,114.5 Z M 905.5,160.5 C 910.833,160.5 916.167,160.5 921.5,160.5C 922.527,171.474 917.527,177.14 906.5,177.5C 900.017,178.275 896.017,175.608 894.5,169.5C 894.556,166.889 895.556,164.722 897.5,163C 900.31,162.218 902.977,161.384 905.5,160.5 Z"/></g>
<g><path style="opacity:0.961" fill="#3375bb" d="M 1065.5,114.5 C 1096.74,114.068 1111.74,129.401 1110.5,160.5C 1091.49,160.167 1072.49,160.5 1053.5,161.5C 1057.64,170.407 1064.64,175.074 1074.5,175.5C 1081.86,175.16 1088.2,172.494 1093.5,167.5C 1097.7,171.863 1101.7,176.363 1105.5,181C 1097.2,190.216 1086.7,194.383 1074,193.5C 1051.91,194.31 1037.58,184.31 1031,163.5C 1027.78,136.556 1039.28,120.222 1065.5,114.5 Z M 1066.5,132.5 C 1078.09,131.288 1085.76,136.122 1089.5,147C 1077.5,147.5 1065.5,147.667 1053.5,147.5C 1054.63,139.701 1058.97,134.701 1066.5,132.5 Z"/></g>
<g><path style="opacity:0.959" fill="#3375bb" d="M 469.5,115.5 C 477.167,115.5 484.833,115.5 492.5,115.5C 492.333,131.503 492.5,147.503 493,163.5C 495.006,170.507 499.672,173.84 507,173.5C 515.195,173.304 520.528,169.304 523,161.5C 523.5,146.17 523.667,130.837 523.5,115.5C 531.167,115.5 538.833,115.5 546.5,115.5C 546.5,141.167 546.5,166.833 546.5,192.5C 539.5,192.5 532.5,192.5 525.5,192.5C 525.664,189.813 525.497,187.146 525,184.5C 518.623,191.128 510.79,194.128 501.5,193.5C 491.45,193.986 482.95,190.653 476,183.5C 472.91,179.318 470.91,174.651 470,169.5C 469.5,151.503 469.333,133.503 469.5,115.5 Z"/></g>
</svg>
